<?xml version="1.0" encoding="UTF-8" standalone="no"?>
<!DOCTYPE svg PUBLIC "-//W3C//DTD SVG 1.1//EN" "http://www.w3.org/Graphics/SVG/1.1/DTD/svg11.dtd">
<svg xmlns="http://www.w3.org/2000/svg" version="1.1" viewBox="0.00 0.00 643.00 388.00">
<g stroke-width="2.00" fill="none" stroke-linecap="butt">
<path stroke="#3a5d81" vector-effect="non-scaling-stroke" d="
  M 324.1750 51.1922
  A 8.09 8.09 0.0 0 0 316.5940 42.6234
  L 312.4417 42.3695
  A 8.09 8.09 0.0 0 0 303.8729 49.9505
  L 303.7850 51.3878
  A 8.09 8.09 0.0 0 0 311.3660 59.9566
  L 315.5183 60.2105
  A 8.09 8.09 0.0 0 0 324.0871 52.6295
  L 324.1750 51.1922"
/>
<path stroke="#3a5d81" vector-effect="non-scaling-stroke" d="
  M 449.48 247.02
  Q 449.71 247.19 449.72 247.48
  Q 449.87 257.15 449.58 267.22
  A 0.64 0.64 0.0 0 0 450.38 267.85
  Q 450.76 267.75 451.37 267.14
  Q 461.48 257.02 471.32 248.28
  A 4.13 4.11 24.1 0 1 474.06 247.24
  Q 515.80 247.25 548.80 246.69
  Q 550.61 246.66 552.40 246.02
  Q 552.88 245.85 553.10 245.39
  C 554.05 243.43 553.86 240.26 553.87 238.13
  Q 554.08 178.92 554.01 112.99
  C 554.00 104.97 551.28 102.81 543.20 102.80
  Q 487.13 102.74 431.90 102.89
  Q 428.66 102.90 425.23 103.10
  C 420.24 103.39 418.41 109.27 418.41 113.30
  Q 418.44 177.18 418.96 238.29
  C 419.01 243.91 422.26 246.64 427.61 246.57
  Q 438.01 246.42 448.30 246.63
  A 2.09 2.07 63.1 0 1 449.48 247.02"
/>
<path stroke="#3f8189" vector-effect="non-scaling-stroke" d="
  M 540.42 201.31
  C 546.39 187.78 547.04 168.87 540.60 155.22
  Q 528.73 130.04 500.97 119.99
  Q 494.56 117.67 485.81 117.58
  C 471.44 117.42 456.60 121.88 446.32 131.57
  Q 437.83 139.58 432.26 150.66
  Q 427.89 159.36 427.25 170.09
  C 426.44 183.73 430.15 197.04 438.00 208.41
  C 445.63 219.45 457.45 229.61 470.61 234.05
  C 480.28 237.32 492.91 237.42 502.42 234.91
  C 519.43 230.43 533.54 216.90 540.42 201.31"
/>
</g>
<path fill="#313c43" d="
  M 503.26 93.69
  A 0.71 0.71 0.0 0 0 503.98 94.40
  Q 525.28 94.27 546.44 94.61
  C 554.34 94.74 562.75 99.89 562.76 108.79
  Q 562.79 174.41 562.69 240.01
  C 562.68 248.50 558.32 255.31 549.05 255.40
  Q 526.07 255.63 504.90 255.31
  A 1.15 1.15 0.0 0 0 503.73 256.44
  Q 503.39 285.31 503.74 322.02
  Q 503.81 329.28 502.86 332.95
  Q 501.34 338.82 496.37 343.68
  C 489.66 350.24 480.80 351.71 471.51 351.70
  Q 404.12 351.63 337.43 351.53
  Q 336.18 351.53 334.94 351.25
  Q 334.46 351.15 334.12 350.79
  Q 329.45 345.91 324.76 345.96
  Q 313.03 346.10 301.36 345.98
  Q 294.09 345.90 289.55 350.48
  Q 288.65 351.40 287.33 351.40
  Q 238.48 351.59 192.25 351.60
  A 2.93 2.92 -80.0 0 0 189.50 353.53
  C 186.53 361.71 181.53 369.27 171.78 369.45
  C 161.78 369.63 154.34 364.90 147.59 357.26
  Q 143.03 352.10 137.93 347.29
  C 133.94 343.53 131.29 339.03 129.84 333.72
  A 1.63 1.62 -3.3 0 0 128.52 332.55
  Q 126.71 332.27 124.89 332.27
  Q 106.88 332.25 88.86 332.23
  Q 80.46 332.22 72.33 328.16
  Q 53.23 318.63 49.08 297.51
  C 47.91 291.54 48.47 283.71 48.47 277.15
  Q 48.47 214.08 48.52 149.00
  C 48.53 146.43 48.73 143.90 47.87 141.49
  Q 46.28 137.09 45.03 133.18
  C 40.68 119.50 40.60 103.96 46.68 90.79
  C 52.98 77.15 63.47 67.87 78.11 64.08
  Q 85.29 62.22 97.97 62.41
  C 108.20 62.56 118.62 62.54 129.02 62.24
  A 1.09 1.09 0.0 0 0 130.08 61.19
  C 130.54 50.93 136.94 42.63 146.59 39.26
  Q 150.91 37.75 162.20 37.80
  Q 224.39 38.06 291.04 38.16
  Q 291.98 38.16 292.93 38.02
  A 1.13 1.11 -77.4 0 0 293.72 37.51
  Q 296.45 33.29 302.96 33.26
  Q 311.52 33.22 319.98 33.21
  Q 324.68 33.21 328.64 33.98
  Q 331.33 34.51 332.44 37.05
  A 1.52 1.50 -11.5 0 0 333.83 37.96
  Q 407.07 37.71 476.00 38.07
  C 480.24 38.09 484.77 38.45 488.72 40.19
  C 498.59 44.53 503.28 54.24 503.27 65.02
  Q 503.25 79.62 503.26 93.69
  Z
  M 324.1750 51.1922
  A 8.09 8.09 0.0 0 0 316.5940 42.6234
  L 312.4417 42.3695
  A 8.09 8.09 0.0 0 0 303.8729 49.9505
  L 303.7850 51.3878
  A 8.09 8.09 0.0 0 0 311.3660 59.9566
  L 315.5183 60.2105
  A 8.09 8.09 0.0 0 0 324.0871 52.6295
  L 324.1750 51.1922
  Z
  M 75.10 140.29
  L 72.80 140.15
  Q 70.73 140.04 71.03 137.98
  Q 73.88 118.59 91.35 110.67
  C 102.79 105.48 117.13 105.61 129.07 109.90
  A 0.62 0.61 -80.3 0 0 129.89 109.32
  L 129.91 71.29
  Q 129.91 70.28 128.89 70.28
  Q 113.99 70.41 100.21 70.17
  Q 87.04 69.94 80.29 71.64
  C 64.36 75.64 52.93 88.91 51.11 105.64
  Q 48.92 125.81 58.42 145.06
  Q 60.12 148.51 61.79 151.95
  A 0.78 0.78 0.0 0 1 61.01 153.07
  L 57.46 152.73
  A 0.93 0.93 0.0 0 0 56.44 153.66
  Q 56.76 215.62 56.31 276.52
  Q 56.20 291.71 56.89 295.74
  Q 58.87 307.39 68.94 316.26
  C 79.38 325.46 91.78 324.31 104.69 324.16
  Q 124.60 323.94 154.01 325.18
  Q 166.61 325.72 179.87 321.35
  Q 209.46 311.62 230.04 290.20
  Q 243.48 276.21 247.48 258.40
  Q 255.65 222.00 235.20 191.96
  Q 230.60 185.21 225.05 178.89
  Q 200.75 151.24 170.43 133.34
  Q 148.40 120.35 123.51 114.43
  Q 105.33 110.10 91.45 117.27
  Q 78.04 124.19 77.10 138.52
  Q 76.98 140.39 75.10 140.29
  Z
  M 164.63 120.71
  C 191.33 134.79 215.63 154.61 234.83 178.25
  C 246.24 192.30 255.02 209.02 257.15 226.90
  C 260.42 254.20 253.41 278.60 233.56 297.85
  Q 220.37 310.65 205.56 319.13
  Q 204.82 319.55 204.05 319.89
  Q 201.92 320.82 204.23 321.11
  Q 206.02 321.34 207.75 321.33
  Q 324.13 320.76 470.01 320.75
  A 1.45 1.45 0.0 0 0 471.46 319.30
  L 471.53 262.55
  A 0.57 0.57 0.0 0 0 470.76 262.01
  Q 470.03 262.29 469.44 262.82
  Q 461.58 269.95 453.05 277.53
  C 445.70 284.06 440.98 278.67 440.83 270.65
  Q 440.69 263.31 440.72 255.67
  A 0.87 0.87 0.0 0 0 439.88 254.79
  Q 433.95 254.60 428.00 254.71
  C 420.02 254.85 414.02 252.77 411.35 245.23
  C 410.44 242.67 410.52 239.50 410.51 236.75
  Q 410.38 179.25 410.20 121.75
  Q 410.19 116.30 410.37 110.77
  Q 410.57 104.82 412.56 101.63
  C 416.06 96.01 421.14 94.04 427.48 94.04
  Q 448.86 94.04 470.63 94.04
  A 0.82 0.81 0.4 0 0 471.45 93.24
  L 471.70 71.22
  A 0.98 0.98 0.0 0 0 470.72 70.23
  L 164.07 70.43
  A 0.87 0.87 0.0 0 0 163.20 71.30
  Q 163.22 95.73 163.29 118.04
  C 163.29 119.20 163.54 120.13 164.63 120.71
  Z
  M 449.48 247.02
  Q 449.71 247.19 449.72 247.48
  Q 449.87 257.15 449.58 267.22
  A 0.64 0.64 0.0 0 0 450.38 267.85
  Q 450.76 267.75 451.37 267.14
  Q 461.48 257.02 471.32 248.28
  A 4.13 4.11 24.1 0 1 474.06 247.24
  Q 515.80 247.25 548.80 246.69
  Q 550.61 246.66 552.40 246.02
  Q 552.88 245.85 553.10 245.39
  C 554.05 243.43 553.86 240.26 553.87 238.13
  Q 554.08 178.92 554.01 112.99
  C 554.00 104.97 551.28 102.81 543.20 102.80
  Q 487.13 102.74 431.90 102.89
  Q 428.66 102.90 425.23 103.10
  C 420.24 103.39 418.41 109.27 418.41 113.30
  Q 418.44 177.18 418.96 238.29
  C 419.01 243.91 422.26 246.64 427.61 246.57
  Q 438.01 246.42 448.30 246.63
  A 2.09 2.07 63.1 0 1 449.48 247.02
  Z"
/>
<rect fill="#437ebf" x="-10.17" y="-8.81" transform="translate(313.98,51.29) rotate(3.5)" width="20.34" height="17.62" rx="8.09"/>
<path fill="#3b8452" d="
  M 312.64 103.57
  C 314.48 105.24 316.15 104.33 317.68 102.93
  Q 329.32 92.31 340.61 81.34
  C 344.00 78.05 346.78 75.62 351.27 77.62
  C 357.23 80.28 363.58 87.60 356.78 93.78
  Q 340.53 108.56 324.40 125.40
  Q 323.18 126.68 321.56 127.78
  C 314.65 132.44 309.35 130.04 304.31 124.73
  Q 296.46 116.47 289.17 109.25
  C 287.09 107.20 285.22 104.44 286.17 101.41
  Q 288.38 94.41 295.31 92.63
  Q 298.59 91.79 301.43 93.70
  C 305.50 96.42 308.93 100.21 312.64 103.57
  Z"
/>
<rect fill="#f4aa43" x="-11.87" y="-11.24" transform="translate(192.39,99.74) rotate(-0.1)" width="23.74" height="22.48" rx="2.03"/>
<rect fill="#437ebf" x="-11.89" y="-11.16" transform="translate(232.69,99.60) rotate(-0.1)" width="23.78" height="22.32" rx="1.43"/>
<path fill="#437ebf" d="
  M 449.48 247.02
  A 2.09 2.07 63.1 0 0 448.30 246.63
  Q 438.01 246.42 427.61 246.57
  C 422.26 246.64 419.01 243.91 418.96 238.29
  Q 418.44 177.18 418.41 113.30
  C 418.41 109.27 420.24 103.39 425.23 103.10
  Q 428.66 102.90 431.90 102.89
  Q 487.13 102.74 543.20 102.80
  C 551.28 102.81 554.00 104.97 554.01 112.99
  Q 554.08 178.92 553.87 238.13
  C 553.86 240.26 554.05 243.43 553.10 245.39
  Q 552.88 245.85 552.40 246.02
  Q 550.61 246.66 548.80 246.69
  Q 515.80 247.25 474.06 247.24
  A 4.13 4.11 24.1 0 0 471.32 248.28
  Q 461.48 257.02 451.37 267.14
  Q 450.76 267.75 450.38 267.85
  A 0.64 0.64 0.0 0 1 449.58 267.22
  Q 449.87 257.15 449.72 247.48
  Q 449.71 247.19 449.48 247.02
  Z
  M 540.42 201.31
  C 546.39 187.78 547.04 168.87 540.60 155.22
  Q 528.73 130.04 500.97 119.99
  Q 494.56 117.67 485.81 117.58
  C 471.44 117.42 456.60 121.88 446.32 131.57
  Q 437.83 139.58 432.26 150.66
  Q 427.89 159.36 427.25 170.09
  C 426.44 183.73 430.15 197.04 438.00 208.41
  C 445.63 219.45 457.45 229.61 470.61 234.05
  C 480.28 237.32 492.91 237.42 502.42 234.91
  C 519.43 230.43 533.54 216.90 540.42 201.31
  Z"
/>
<path fill="#3b8452" d="
  M 540.42 201.31
  C 533.54 216.90 519.43 230.43 502.42 234.91
  C 492.91 237.42 480.28 237.32 470.61 234.05
  C 457.45 229.61 445.63 219.45 438.00 208.41
  C 430.15 197.04 426.44 183.73 427.25 170.09
  Q 427.89 159.36 432.26 150.66
  Q 437.83 139.58 446.32 131.57
  C 456.60 121.88 471.44 117.42 485.81 117.58
  Q 494.56 117.67 500.97 119.99
  Q 528.73 130.04 540.60 155.22
  C 547.04 168.87 546.39 187.78 540.42 201.31
  Z
  M 478.75 176.94
  Q 477.82 177.57 476.90 176.94
  Q 474.62 175.38 472.81 173.42
  Q 466.92 167.00 460.75 161.22
  Q 459.19 159.76 457.58 161.17
  C 453.86 164.44 449.55 168.16 447.22 172.54
  A 2.47 2.46 -53.7 0 0 447.66 175.46
  Q 458.42 186.06 469.20 196.70
  C 473.26 200.71 477.41 203.93 482.16 198.69
  Q 501.57 177.24 523.52 154.80
  C 525.47 152.81 528.59 150.23 525.85 147.29
  C 523.00 144.24 515.72 139.78 511.92 143.41
  C 501.10 153.73 490.76 164.74 480.08 175.83
  Q 479.49 176.45 478.75 176.94
  Z"
/>
<rect fill="#313c43" x="-68.46" y="-12.38" transform="translate(328.65,155.74) rotate(-0.1)" width="136.92" height="24.76" rx="11.89"/>
<path fill="#313c43" d="
  M 589.37 166.03
  A 1.18 1.18 0.0 0 1 591.49 166.27
  Q 593.25 171.59 597.78 173.56
  Q 602.11 175.46 597.55 176.71
  Q 596.99 176.86 596.35 176.85
  A 1.88 1.86 -64.5 0 0 595.16 177.28
  Q 592.91 179.13 591.39 181.80
  A 0.79 0.79 0.0 0 1 590.03 181.82
  Q 587.55 177.77 582.12 175.57
  Q 579.25 174.40 582.18 173.40
  C 584.32 172.68 586.63 171.65 587.59 169.46
  Q 588.37 167.68 589.37 166.03
  Z"
/>
<path fill="#3b8452" d="
  M 149.1900 301.3000
  A 66.76 63.51 90.0 0 1 85.6800 234.5400
  A 66.76 63.51 90.0 0 1 149.1900 167.7800
  A 66.76 63.51 90.0 0 1 212.7000 234.5400
  A 66.76 63.51 90.0 0 1 149.1900 301.3000
  Z
  M 133.77 239.64
  Q 134.47 239.34 134.98 239.90
  Q 140.66 246.12 145.87 251.28
  C 147.92 253.31 151.44 254.72 154.11 252.75
  Q 155.95 251.39 157.40 249.83
  Q 171.37 234.79 186.62 219.17
  A 2.75 2.73 -39.5 0 0 186.96 215.76
  Q 183.88 211.06 178.12 207.81
  Q 174.39 205.71 171.44 208.65
  Q 162.41 217.65 152.36 228.68
  Q 150.55 230.65 148.65 228.77
  Q 141.05 221.27 134.13 215.07
  Q 132.86 213.94 131.72 213.35
  A 1.62 1.62 0.0 0 0 129.84 213.63
  Q 117.77 225.39 106.96 237.41
  Q 106.27 238.18 106.27 239.24
  Q 106.27 239.83 106.62 240.29
  C 109.63 244.31 114.04 249.89 118.46 251.89
  Q 118.98 252.12 119.49 251.87
  Q 121.40 250.94 122.83 249.58
  Q 127.39 245.26 131.46 241.21
  Q 132.47 240.20 133.77 239.64
  Z"
/>
<rect fill="#313c43" x="260.06" y="182.02" width="98.30" height="25.56" rx="12.43"/>
<ellipse fill="#f4aa43" cx="0.00" cy="0.00" transform="translate(315.06,230.98) rotate(-2.3)" rx="14.86" ry="12.66"/>
<rect fill="#f4aa43" x="-83.66" y="-10.88" transform="translate(340.76,286.18) rotate(-0.1)" width="167.32" height="21.76" rx="10.55"/>
<path fill="#313c43" d="
  M 572.97 307.81
  Q 573.03 307.96 572.89 308.03
  C 571.28 308.89 569.27 308.24 567.93 309.47
  C 566.58 310.69 565.60 313.20 565.03 314.87
  Q 564.91 315.21 564.58 315.36
  Q 563.75 315.75 562.96 315.37
  A 1.02 1.00 3.2 0 1 562.44 314.80
  C 561.78 313.06 561.18 311.13 559.47 310.12
  Q 556.97 308.66 554.37 307.81
  A 0.54 0.54 0.0 0 1 554.23 306.86
  C 556.65 305.14 562.39 300.54 562.97 297.63
  A 0.66 0.66 0.0 0 1 564.18 297.41
  Q 567.19 302.38 571.93 306.19
  C 572.40 306.56 572.74 307.26 572.97 307.81
  Z"
/>
</svg>
