<svg id="eyQDFVzXaHT1" xmlns="http://www.w3.org/2000/svg" xmlns:xlink="http://www.w3.org/1999/xlink" viewBox="0 0 643 388" shape-rendering="geometricPrecision" text-rendering="geometricPrecision"><g><path d="M324.175,51.1922c.272768-4.459642-3.121358-8.296021-7.581-8.5688l-4.1523-.2539c-4.459642-.272768-8.296021,3.121358-8.5688,7.581l-.0879,1.4373c-.272768,4.459642,3.121358,8.296021,7.581,8.5688l4.1523.2539c4.459642.272768,8.296021-3.121358,8.5688-7.581l.0879-1.4373" fill="none" stroke="#3a5d81" stroke-width="2"/><path d="M449.48,247.02q.23.17.24.46.15,9.67-.14,19.74c-.003229.199751.087004.389552.243956.513151s.362617.166819.556044.116849q.38-.1.99-.71q10.11-10.12,19.95-18.86c.753367-.670154,1.728441-1.040255,2.74-1.04q41.74.01,74.74-.55q1.81-.03,3.6-.67.48-.17.7-.63c.95-1.96.76-5.13.77-7.26q.21-59.21.14-125.14c-.01-8.02-2.73-10.18-10.81-10.19q-56.07-.06-111.3.09-3.24.01-6.67.21c-4.99.29-6.82,6.17-6.82,10.2q.03,63.88.55,124.99c.05,5.62,3.3,8.35,8.65,8.28q10.4-.15,20.69.06c.42273.00633.834445.142405,1.18.39" fill="none" stroke="#3a5d81" stroke-width="2"/><path d="M540.42,201.31c5.97-13.53,6.62-32.44.18-46.09q-11.87-25.18-39.63-35.23-6.41-2.32-15.16-2.41c-14.37-.16-29.21,4.3-39.49,13.99q-8.49,8.01-14.06,19.09-4.37,8.7-5.01,19.43c-.81,13.64,2.9,26.95,10.75,38.32c7.63,11.04,19.45,21.2,32.61,25.64c9.67,3.27,22.3,3.37,31.81.86c17.01-4.48,31.12-18.01,38-33.6" fill="none" stroke="#3f8189" stroke-width="2"/></g><path id="eyQDFVzXaHT6" d="M503.26,93.69c-.000019.190049.076156.372173.211477.505615s.318493.207062.508523.204385q21.3-.13,42.46.21c7.9.13,16.31,5.28,16.32,14.18q.03,65.62-.07,131.22c-.01,8.49-4.37,15.3-13.64,15.39q-22.98.23-44.15-.09c-.305012-.005351-.599653.110707-.819081.322633s-.345661.502353-.350919.807367q-.34,28.87.01,65.58.07,7.26-.88,10.93-1.52,5.87-6.49,10.73c-6.71,6.56-15.57,8.03-24.86,8.02q-67.39-.07-134.08-.17-1.25,0-2.49-.28-.48-.1-.82-.46-4.67-4.88-9.36-4.83-11.73.14-23.4.02-7.27-.08-11.81,4.5-.9.92-2.22.92-48.85.19-95.08.2c-1.229588-.001152-2.329077.77049-2.75,1.93-2.97,8.18-7.97,15.74-17.72,15.92-10,.18-17.44-4.55-24.19-12.19q-4.56-5.16-9.66-9.97c-3.99-3.76-6.64-8.26-8.09-13.57-.170036-.614228-.686607-1.072098-1.32-1.17q-1.81-.28-3.63-.28-18.01-.02-36.03-.04-8.4-.01-16.53-4.07-19.1-9.53-23.25-30.65c-1.17-5.97-.61-13.8-.61-20.36q0-63.07.05-128.15c.01-2.57.21-5.1-.65-7.51q-1.59-4.4-2.84-8.31c-4.35-13.68-4.43-29.22,1.65-42.39c6.3-13.64,16.79-22.92,31.43-26.71q7.18-1.86,19.86-1.67c10.23.15,20.65.13,31.05-.17.575049-.015453,1.039097-.475124,1.06-1.05.46-10.26,6.86-18.56,16.51-21.93q4.32-1.51,15.61-1.46q62.19.26,128.84.36.94,0,1.89-.14c.323321-.044552.612157-.231016.79-.51q2.73-4.22,9.24-4.25q8.56-.04,17.02-.05q4.7,0,8.66.77q2.69.53,3.8,3.07c.236154.551451.782767.909305,1.39.91q73.24-.25,142.17.11c4.24.02,8.77.38,12.72,2.12c9.87,4.34,14.56,14.05,14.55,24.83q-.02,14.6-.01,28.67ZM324.175,51.1922c.272768-4.459642-3.121358-8.296021-7.581-8.5688l-4.1523-.2539c-4.459642-.272768-8.296021,3.121358-8.5688,7.581l-.0879,1.4373c-.272768,4.459642,3.121358,8.296021,7.581,8.5688l4.1523.2539c4.459642.272768,8.296021-3.121358,8.5688-7.581l.0879-1.4373ZM75.1,140.29l-2.3-.14q-2.07-.11-1.77-2.17q2.85-19.39,20.32-27.31c11.44-5.19,25.78-5.06,37.72-.77.186111.068144.393707.040096.556738-.075219s.261197-.303538.263262-.504781l.02-38.03q0-1.01-1.02-1.01-14.9.13-28.68-.11-13.17-.23-19.92,1.47c-15.93,4-27.36,17.27-29.18,34q-2.19,20.17,7.31,39.42q1.7,3.45,3.37,6.89c.12516.254597.102215.557075-.059916.78988s-.437882.359221-.720084.33012l-3.55-.34c-.261835-.025461-.522204.061161-.716601.238405s-.304634.428528-.303399.691595q.32,61.96-.13,122.86-.11,15.19.58,19.22q1.98,11.65,12.05,20.52c10.44,9.2,22.84,8.05,35.75,7.9q19.91-.22,49.32,1.02q12.6.54,25.86-3.83q29.59-9.73,50.17-31.15q13.44-13.99,17.44-31.8q8.17-36.4-12.28-66.44-4.6-6.75-10.15-13.07-24.3-27.65-54.62-45.55-22.03-12.99-46.92-18.91-18.18-4.33-32.06,2.84-13.41,6.92-14.35,21.25-.12,1.87-2,1.77Zm89.53-19.58c26.7,14.08,51,33.9,70.2,57.54c11.41,14.05,20.19,30.77,22.32,48.65c3.27,27.3-3.74,51.7-23.59,70.95q-13.19,12.8-28,21.28-.74.42-1.51.76-2.13.93.18,1.22q1.79.23,3.52.22q116.38-.57,262.26-.58c.800813,0,1.45-.649187,1.45-1.45l.07-56.75c.002063-.188022-.088736-.364965-.242686-.47293s-.351239-.133058-.527314-.06707q-.73.28-1.32.81-7.86,7.13-16.39,14.71c-7.35,6.53-12.07,1.14-12.22-6.88q-.14-7.34-.11-14.98c.005716-.472884-.367362-.863727-.84-.88q-5.93-.19-11.88-.08c-7.98.14-13.98-1.94-16.65-9.48-.91-2.56-.83-5.73-.84-8.48q-.13-57.5-.31-115-.01-5.45.17-10.98.2-5.95,2.19-9.14c3.5-5.62,8.58-7.59,14.92-7.59q21.38,0,43.15,0c.449003.000109.814533-.356506.82-.8l.25-22.02c.00267-.26164-.0994-.513484-.283476-.699438s-.43487-.290576-.696524-.290562l-306.65.2c-.480488,0-.87.389512-.87.87q.02,24.43.09,46.74c0,1.16.25,2.09,1.34,2.67ZM449.48,247.02q.23.17.24.46.15,9.67-.14,19.74c-.003229.199751.087004.389552.243956.513151s.362617.166819.556044.116849q.38-.1.99-.71q10.11-10.12,19.95-18.86c.753367-.670154,1.728441-1.040255,2.74-1.04q41.74.01,74.74-.55q1.81-.03,3.6-.67.48-.17.7-.63c.95-1.96.76-5.13.77-7.26q.21-59.21.14-125.14c-.01-8.02-2.73-10.18-10.81-10.19q-56.07-.06-111.3.09-3.24.01-6.67.21c-4.99.29-6.82,6.17-6.82,10.2q.03,63.88.55,124.99c.05,5.62,3.3,8.35,8.65,8.28q10.4-.15,20.69.06c.42273.00633.834445.142405,1.18.39Z" opacity="0.63" fill="#313c43"/><rect width="20.34" height="17.62" rx="8.09" ry="8.09" transform="matrix(.998135 0.061049-.061048 0.998135 304.366802 41.875564)" fill="#437ebf"/><path d="M312.64,103.57c1.84,1.67,3.51.76,5.04-.64q11.64-10.62,22.93-21.59c3.39-3.29,6.17-5.72,10.66-3.72c5.96,2.66,12.31,9.98,5.51,16.16q-16.25,14.78-32.38,31.62-1.22,1.28-2.84,2.38c-6.91,4.66-12.21,2.26-17.25-3.05q-7.85-8.26-15.14-15.48c-2.08-2.05-3.95-4.81-3-7.84q2.21-7,9.14-8.78q3.28-.84,6.12,1.07c4.07,2.72,7.5,6.51,11.21,9.87Z" fill="#3b8452"/><rect width="23.74" height="22.48" rx="2.03" ry="2.03" transform="matrix(.999998-.001745 0.001745 0.999998 180.500404 88.52073)" fill="#f4aa43"/><rect width="23.78" height="22.32" rx="1.43" ry="1.43" transform="matrix(.999998-.001745 0.001745 0.999998 220.780544 88.460765)" fill="#437ebf"/><path d="M449.48,247.02c-.345555-.247595-.75727-.38367-1.18-.39q-10.29-.21-20.69-.06c-5.35.07-8.6-2.66-8.65-8.28q-.52-61.11-.55-124.99c0-4.03,1.83-9.91,6.82-10.2q3.43-.2,6.67-.21q55.23-.15,111.3-.09c8.08.01,10.8,2.17,10.81,10.19q.07,65.93-.14,125.14c-.01,2.13.18,5.3-.77,7.26q-.22.46-.7.63-1.79.64-3.6.67-33,.56-74.74.55c-1.011559-.000255-1.986633.369846-2.74,1.04q-9.84,8.74-19.95,18.86-.61.61-.99.71c-.193427.04997-.399092.006751-.556044-.116849s-.247185-.3134-.243956-.513151q.29-10.07.14-19.74-.01-.29-.24-.46Zm90.94-45.71c5.97-13.53,6.62-32.44.18-46.09q-11.87-25.18-39.63-35.23-6.41-2.32-15.16-2.41c-14.37-.16-29.21,4.3-39.49,13.99q-8.49,8.01-14.06,19.09-4.37,8.7-5.01,19.43c-.81,13.64,2.9,26.95,10.75,38.32c7.63,11.04,19.45,21.2,32.61,25.64c9.67,3.27,22.3,3.37,31.81.86c17.01-4.48,31.12-18.01,38-33.6Z" fill="#437ebf"/><path id="eyQDFVzXaHT12" d="M540.42,201.31c-6.88,15.59-20.99,29.12-38,33.6-9.51,2.51-22.14,2.41-31.81-.86-13.16-4.44-24.98-14.6-32.61-25.64-7.85-11.37-11.56-24.68-10.75-38.32q.64-10.73,5.01-19.43q5.57-11.08,14.06-19.09c10.28-9.69,25.12-14.15,39.49-13.99q8.75.09,15.16,2.41q27.76,10.05,39.63,35.23c6.44,13.65,5.79,32.56-.18,46.09Zm-61.67-24.37q-.93.63-1.85,0-2.28-1.56-4.09-3.52-5.89-6.42-12.06-12.2-1.56-1.46-3.17-.05c-3.72,3.27-8.03,6.99-10.36,11.37-.516664.965841-.337544,2.15455.44,2.92q10.76,10.6,21.54,21.24c4.06,4.01,8.21,7.23,12.96,1.99q19.41-21.45,41.36-43.89c1.95-1.99,5.07-4.57,2.33-7.51-2.85-3.05-10.13-7.51-13.93-3.88-10.82,10.32-21.16,21.33-31.84,32.42q-.59.62-1.33,1.11Z" opacity="0" fill="#3b8452"/><rect id="eyQDFVzXaHT13" width="10" height="24.76" rx="12.38" ry="12.38" transform="matrix(.999998-.001745 0.001745 0.999998 260.168501 143.479481)" fill="#313c43"/><path d="M589.37,166.03c.240213-.387967.682584-.602661,1.136-.551331s.836596.359483.984.791331q1.76,5.32,6.29,7.29q4.33,1.9-.23,3.15-.56.15-1.2.14c-.433098.000184-.853864.152225-1.19.43q-2.25,1.85-3.77,4.52c-.138596.242541-.394977.393855-.674295.397963s-.540037-.139602-.685705-.377963q-2.48-4.05-7.91-6.25-2.87-1.17.06-2.17c2.14-.72,4.45-1.75,5.41-3.94q.78-1.78,1.78-3.43Z" fill="#313c43"/><path id="eyQDFVzXaHT15" d="M149.19,301.3c-16.843901,0-32.997917-7.033623-44.908353-19.553552s-18.601647-29.500597-18.601647-47.206448c0-36.87053,28.434396-66.76,63.51-66.76s63.51,29.88947,63.51,66.76c0,17.705853-6.691213,34.68652-18.601648,47.206449s-28.064453,19.553551-44.908352,19.553551Zm-15.42-61.66q.7-.3,1.21.26q5.68,6.22,10.89,11.38c2.05,2.03,5.57,3.44,8.24,1.47q1.84-1.36,3.29-2.92q13.97-15.04,29.22-30.66c.898419-.922643,1.039718-2.339784.34-3.41q-3.08-4.7-8.84-7.95-3.73-2.1-6.68.84-9.03,9-19.08,20.03-1.81,1.97-3.71.09-7.6-7.5-14.52-13.7-1.27-1.13-2.41-1.72c-.62133-.322732-1.379683-.209786-1.88.28q-12.07,11.76-22.88,23.78-.69.77-.69,1.83q0,.59.35,1.05c3.01,4.02,7.42,9.6,11.84,11.6q.52.23,1.03-.02q1.91-.93,3.34-2.29q4.56-4.32,8.63-8.37q1.01-1.01,2.31-1.57Z" transform="translate(.000001 0)" fill="#3b8452"/><rect id="eyQDFVzXaHT16" width="0" height="25.56" rx="12.43" ry="12.43" transform="translate(260.06 182.02)" fill="#313c43"/><ellipse rx="14.86" ry="12.66" transform="matrix(.999194-.040132 0.040132 0.999194 315.06 230.98)" fill="#f4aa43"/><rect width="167.32" height="21.76" rx="10.55" ry="10.55" transform="matrix(.999998-.001745 0.001745 0.999998 257.081142 275.446003)" fill="#f4aa43"/><path d="M572.97,307.81q.06.15-.08.22c-1.61.86-3.62.21-4.96,1.44-1.35,1.22-2.33,3.73-2.9,5.4q-.12.34-.45.49-.83.39-1.62.01c-.243279-.11521-.430271-.320182-.52-.57-.66-1.74-1.26-3.67-2.97-4.68q-2.5-1.46-5.1-2.31c-.191411-.065358-.330249-.232202-.359737-.432302s.055318-.399902.219737-.517698c2.42-1.72,8.16-6.32,8.74-9.23.051872-.266995.262221-.474827.529822-.523482s.537643.071834.680178.303482q3.01,4.97,7.75,8.78c.47.37.81,1.07,1.04,1.62Z" fill="#313c43"/>
<script><![CDATA[
!function(t,n){"object"==typeof exports&&"undefined"!=typeof module?module.exports=n():"function"==typeof __SVGATOR_DEFINE__&&__SVGATOR_DEFINE__.amd?__SVGATOR_DEFINE__(n):((t="undefined"!=typeof globalThis?globalThis:t||self).__SVGATOR_PLAYER__=t.__SVGATOR_PLAYER__||{},t.__SVGATOR_PLAYER__["5c7f360c"]=n())}(this,(function(){"use strict";function t(t,n){var e=Object.keys(t);if(Object.getOwnPropertySymbols){var r=Object.getOwnPropertySymbols(t);n&&(r=r.filter((function(n){return Object.getOwnPropertyDescriptor(t,n).enumerable}))),e.push.apply(e,r)}return e}function n(n){for(var e=1;e<arguments.length;e++){var r=null!=arguments[e]?arguments[e]:{};e%2?t(Object(r),!0).forEach((function(t){u(n,t,r[t])})):Object.getOwnPropertyDescriptors?Object.defineProperties(n,Object.getOwnPropertyDescriptors(r)):t(Object(r)).forEach((function(t){Object.defineProperty(n,t,Object.getOwnPropertyDescriptor(r,t))}))}return n}function e(t){return(e="function"==typeof Symbol&&"symbol"==typeof Symbol.iterator?function(t){return typeof t}:function(t){return t&&"function"==typeof Symbol&&t.constructor===Symbol&&t!==Symbol.prototype?"symbol":typeof t})(t)}function r(t,n){if(!(t instanceof n))throw new TypeError("Cannot call a class as a function")}function i(t,n){for(var e=0;e<n.length;e++){var r=n[e];r.enumerable=r.enumerable||!1,r.configurable=!0,"value"in r&&(r.writable=!0),Object.defineProperty(t,r.key,r)}}function o(t,n,e){return n&&i(t.prototype,n),e&&i(t,e),t}function u(t,n,e){return n in t?Object.defineProperty(t,n,{value:e,enumerable:!0,configurable:!0,writable:!0}):t[n]=e,t}function a(t){return(a=Object.setPrototypeOf?Object.getPrototypeOf:function(t){return t.__proto__||Object.getPrototypeOf(t)})(t)}function l(t,n){return(l=Object.setPrototypeOf||function(t,n){return t.__proto__=n,t})(t,n)}function s(){if("undefined"==typeof Reflect||!Reflect.construct)return!1;if(Reflect.construct.sham)return!1;if("function"==typeof Proxy)return!0;try{return Boolean.prototype.valueOf.call(Reflect.construct(Boolean,[],(function(){}))),!0}catch(t){return!1}}function f(t,n,e){return(f=s()?Reflect.construct:function(t,n,e){var r=[null];r.push.apply(r,n);var i=new(Function.bind.apply(t,r));return e&&l(i,e.prototype),i}).apply(null,arguments)}function c(t,n){if(n&&("object"==typeof n||"function"==typeof n))return n;if(void 0!==n)throw new TypeError("Derived constructors may only return object or undefined");return function(t){if(void 0===t)throw new ReferenceError("this hasn't been initialised - super() hasn't been called");return t}(t)}function h(t,n,e){return(h="undefined"!=typeof Reflect&&Reflect.get?Reflect.get:function(t,n,e){var r=function(t,n){for(;!Object.prototype.hasOwnProperty.call(t,n)&&null!==(t=a(t)););return t}(t,n);if(r){var i=Object.getOwnPropertyDescriptor(r,n);return i.get?i.get.call(e):i.value}})(t,n,e||t)}function v(t){return function(t){if(Array.isArray(t))return y(t)}(t)||function(t){if("undefined"!=typeof Symbol&&null!=t[Symbol.iterator]||null!=t["@@iterator"])return Array.from(t)}(t)||function(t,n){if(!t)return;if("string"==typeof t)return y(t,n);var e=Object.prototype.toString.call(t).slice(8,-1);"Object"===e&&t.constructor&&(e=t.constructor.name);if("Map"===e||"Set"===e)return Array.from(t);if("Arguments"===e||/^(?:Ui|I)nt(?:8|16|32)(?:Clamped)?Array$/.test(e))return y(t,n)}(t)||function(){throw new TypeError("Invalid attempt to spread non-iterable instance.\nIn order to be iterable, non-array objects must have a [Symbol.iterator]() method.")}()}function y(t,n){(null==n||n>t.length)&&(n=t.length);for(var e=0,r=new Array(n);e<n;e++)r[e]=t[e];return r}function g(t,n,e){if(Number.isInteger(t))return t;var r=Math.pow(10,n);return Math[e]((+t+Number.EPSILON)*r)/r}Number.isInteger||(Number.isInteger=function(t){return"number"==typeof t&&isFinite(t)&&Math.floor(t)===t}),Number.EPSILON||(Number.EPSILON=2220446049250313e-31);var d=p(Math.pow(10,-6));function p(t){var n=arguments.length>1&&void 0!==arguments[1]?arguments[1]:6;return g(t,n,"round")}function m(t,n){var e=arguments.length>2&&void 0!==arguments[2]?arguments[2]:d;return Math.abs(t-n)<e}p(Math.pow(10,-2)),p(Math.pow(10,-4));var b=Math.PI/180;function w(t){return t}function A(t,n,e){var r=1-e;return 3*e*r*(t*r+n*e)+e*e*e}function _(){var t=arguments.length>0&&void 0!==arguments[0]?arguments[0]:0,n=arguments.length>1&&void 0!==arguments[1]?arguments[1]:0,e=arguments.length>2&&void 0!==arguments[2]?arguments[2]:1,r=arguments.length>3&&void 0!==arguments[3]?arguments[3]:1;return t<0||t>1||e<0||e>1?null:m(t,n)&&m(e,r)?w:function(i){if(i<=0)return t>0?i*n/t:0===n&&e>0?i*r/e:0;if(i>=1)return e<1?1+(i-1)*(r-1)/(e-1):1===e&&t<1?1+(i-1)*(n-1)/(t-1):1;for(var o,u=0,a=1;u<a;){var l=A(t,e,o=(u+a)/2);if(m(i,l))break;l<i?u=o:a=o}return A(n,r,o)}}function x(){return 1}function k(t){return 1===t?1:0}function S(){var t=arguments.length>0&&void 0!==arguments[0]?arguments[0]:1,n=arguments.length>1&&void 0!==arguments[1]?arguments[1]:0;if(1===t){if(0===n)return k;if(1===n)return x}var e=1/t;return function(t){return t>=1?1:(t+=n*e)-t%e}}var O=Math.sin,j=Math.cos,M=Math.acos,E=Math.asin,P=Math.tan,I=Math.atan2,R=Math.PI/180,F=180/Math.PI,N=Math.sqrt,T=function(){function t(){var n=arguments.length>0&&void 0!==arguments[0]?arguments[0]:1,e=arguments.length>1&&void 0!==arguments[1]?arguments[1]:0,i=arguments.length>2&&void 0!==arguments[2]?arguments[2]:0,o=arguments.length>3&&void 0!==arguments[3]?arguments[3]:1,u=arguments.length>4&&void 0!==arguments[4]?arguments[4]:0,a=arguments.length>5&&void 0!==arguments[5]?arguments[5]:0;r(this,t),this.m=[n,e,i,o,u,a],this.i=null,this.w=null,this.s=null}return o(t,[{key:"determinant",get:function(){var t=this.m;return t[0]*t[3]-t[1]*t[2]}},{key:"isIdentity",get:function(){if(null===this.i){var t=this.m;this.i=1===t[0]&&0===t[1]&&0===t[2]&&1===t[3]&&0===t[4]&&0===t[5]}return this.i}},{key:"point",value:function(t,n){var e=this.m;return{x:e[0]*t+e[2]*n+e[4],y:e[1]*t+e[3]*n+e[5]}}},{key:"translateSelf",value:function(){var t=arguments.length>0&&void 0!==arguments[0]?arguments[0]:0,n=arguments.length>1&&void 0!==arguments[1]?arguments[1]:0;if(!t&&!n)return this;var e=this.m;return e[4]+=e[0]*t+e[2]*n,e[5]+=e[1]*t+e[3]*n,this.w=this.s=this.i=null,this}},{key:"rotateSelf",value:function(){var t=arguments.length>0&&void 0!==arguments[0]?arguments[0]:0;if(t%=360){var n=O(t*=R),e=j(t),r=this.m,i=r[0],o=r[1];r[0]=i*e+r[2]*n,r[1]=o*e+r[3]*n,r[2]=r[2]*e-i*n,r[3]=r[3]*e-o*n,this.w=this.s=this.i=null}return this}},{key:"scaleSelf",value:function(){var t=arguments.length>0&&void 0!==arguments[0]?arguments[0]:1,n=arguments.length>1&&void 0!==arguments[1]?arguments[1]:1;if(1!==t||1!==n){var e=this.m;e[0]*=t,e[1]*=t,e[2]*=n,e[3]*=n,this.w=this.s=this.i=null}return this}},{key:"skewSelf",value:function(t,n){if(n%=360,(t%=360)||n){var e=this.m,r=e[0],i=e[1],o=e[2],u=e[3];t&&(t=P(t*R),e[2]+=r*t,e[3]+=i*t),n&&(n=P(n*R),e[0]+=o*n,e[1]+=u*n),this.w=this.s=this.i=null}return this}},{key:"resetSelf",value:function(){var t=arguments.length>0&&void 0!==arguments[0]?arguments[0]:1,n=arguments.length>1&&void 0!==arguments[1]?arguments[1]:0,e=arguments.length>2&&void 0!==arguments[2]?arguments[2]:0,r=arguments.length>3&&void 0!==arguments[3]?arguments[3]:1,i=arguments.length>4&&void 0!==arguments[4]?arguments[4]:0,o=arguments.length>5&&void 0!==arguments[5]?arguments[5]:0,u=this.m;return u[0]=t,u[1]=n,u[2]=e,u[3]=r,u[4]=i,u[5]=o,this.w=this.s=this.i=null,this}},{key:"recomposeSelf",value:function(){var t=arguments.length>0&&void 0!==arguments[0]?arguments[0]:null,n=arguments.length>1&&void 0!==arguments[1]?arguments[1]:null,e=arguments.length>2&&void 0!==arguments[2]?arguments[2]:null,r=arguments.length>3&&void 0!==arguments[3]?arguments[3]:null,i=arguments.length>4&&void 0!==arguments[4]?arguments[4]:null;return this.isIdentity||this.resetSelf(),t&&(t.x||t.y)&&this.translateSelf(t.x,t.y),n&&this.rotateSelf(n),e&&(e.x&&this.skewSelf(e.x,0),e.y&&this.skewSelf(0,e.y)),!r||1===r.x&&1===r.y||this.scaleSelf(r.x,r.y),i&&(i.x||i.y)&&this.translateSelf(i.x,i.y),this}},{key:"decompose",value:function(){var t=arguments.length>0&&void 0!==arguments[0]?arguments[0]:0,n=arguments.length>1&&void 0!==arguments[1]?arguments[1]:0,e=this.m,r=e[0]*e[0]+e[1]*e[1],i=[[e[0],e[1]],[e[2],e[3]]],o=N(r);if(0===o)return{origin:{x:p(e[4]),y:p(e[5])},translate:{x:p(t),y:p(n)},scale:{x:0,y:0},skew:{x:0,y:0},rotate:0};i[0][0]/=o,i[0][1]/=o;var u=e[0]*e[3]-e[1]*e[2]<0;u&&(o=-o);var a=i[0][0]*i[1][0]+i[0][1]*i[1][1];i[1][0]-=i[0][0]*a,i[1][1]-=i[0][1]*a;var l=N(i[1][0]*i[1][0]+i[1][1]*i[1][1]);if(0===l)return{origin:{x:p(e[4]),y:p(e[5])},translate:{x:p(t),y:p(n)},scale:{x:p(o),y:0},skew:{x:0,y:0},rotate:0};i[1][0]/=l,i[1][1]/=l,a/=l;var s=0;return i[1][1]<0?(s=M(i[1][1])*F,i[0][1]<0&&(s=360-s)):s=E(i[0][1])*F,u&&(s=-s),a=I(a,N(i[0][0]*i[0][0]+i[0][1]*i[0][1]))*F,u&&(a=-a),{origin:{x:p(e[4]),y:p(e[5])},translate:{x:p(t),y:p(n)},scale:{x:p(o),y:p(l)},skew:{x:p(a),y:0},rotate:p(s)}}},{key:"clone",value:function(){var t=this.m;return new this.constructor(t[0],t[1],t[2],t[3],t[4],t[5])}},{key:"toString",value:function(){var t=arguments.length>0&&void 0!==arguments[0]?arguments[0]:" ";if(null===this.s){var n=this.m.map((function(t){return p(t)}));1===n[0]&&0===n[1]&&0===n[2]&&1===n[3]?this.s="translate("+n[4]+t+n[5]+")":this.s="matrix("+n.join(t)+")"}return this.s}}],[{key:"create",value:function(t){return t?Array.isArray(t)?f(this,v(t)):t instanceof this?t.clone():(new this).recomposeSelf(t.origin,t.rotate,t.skew,t.scale,t.translate):new this}}]),t}();function q(t,n,e){return t>=.5?e:n}function B(t,n,e){return 0===t||n===e?n:t*(e-n)+n}function D(t,n,e){var r=B(t,n,e);return r<=0?0:r}function L(t,n,e){var r=B(t,n,e);return r<=0?0:r>=1?1:r}function C(t,n,e){return 0===t?n:1===t?e:{x:B(t,n.x,e.x),y:B(t,n.y,e.y)}}function V(t,n,e){var r=function(t,n,e){return Math.round(B(t,n,e))}(t,n,e);return r<=0?0:r>=255?255:r}function G(t,n,e){return 0===t?n:1===t?e:{r:V(t,n.r,e.r),g:V(t,n.g,e.g),b:V(t,n.b,e.b),a:B(t,null==n.a?1:n.a,null==e.a?1:e.a)}}function z(t,n){for(var e=[],r=0;r<t;r++)e.push(n);return e}function Y(t,n){if(--n<=0)return t;var e=(t=Object.assign([],t)).length;do{for(var r=0;r<e;r++)t.push(t[r])}while(--n>0);return t}var $,U=function(){function t(n){r(this,t),this.list=n,this.length=n.length}return o(t,[{key:"setAttribute",value:function(t,n){for(var e=this.list,r=0;r<this.length;r++)e[r].setAttribute(t,n)}},{key:"removeAttribute",value:function(t){for(var n=this.list,e=0;e<this.length;e++)n[e].removeAttribute(t)}},{key:"style",value:function(t,n){for(var e=this.list,r=0;r<this.length;r++)e[r].style[t]=n}}]),t}(),Q=/-./g,H=function(t,n){return n.toUpperCase()};function J(t){return"function"==typeof t?t:q}function Z(t){return t?"function"==typeof t?t:Array.isArray(t)?function(t){var n=arguments.length>1&&void 0!==arguments[1]?arguments[1]:w;if(!Array.isArray(t))return n;switch(t.length){case 1:return S(t[0])||n;case 2:return S(t[0],t[1])||n;case 4:return _(t[0],t[1],t[2],t[3])||n}return n}(t,null):function(t,n){var e=arguments.length>2&&void 0!==arguments[2]?arguments[2]:w;switch(t){case"linear":return w;case"steps":return S(n.steps||1,n.jump||0)||e;case"bezier":case"cubic-bezier":return _(n.x1||0,n.y1||0,n.x2||0,n.y2||0)||e}return e}(t.type,t.value,null):null}function K(t,n,e){var r=arguments.length>3&&void 0!==arguments[3]&&arguments[3],i=n.length-1;if(t<=n[0].t)return r?[0,0,n[0].v]:n[0].v;if(t>=n[i].t)return r?[i,1,n[i].v]:n[i].v;var o,u=n[0],a=null;for(o=1;o<=i;o++){if(!(t>n[o].t)){a=n[o];break}u=n[o]}return null==a?r?[i,1,n[i].v]:n[i].v:u.t===a.t?r?[o,1,a.v]:a.v:(t=(t-u.t)/(a.t-u.t),u.e&&(t=u.e(t)),r?[o,t,e(t,u.v,a.v)]:e(t,u.v,a.v))}function W(t,n){var e=arguments.length>2&&void 0!==arguments[2]?arguments[2]:null;return t&&t.length?"function"!=typeof n?null:("function"!=typeof e&&(e=null),function(r){var i=K(r,t,n);return null!=i&&e&&(i=e(i)),i}):null}function X(t,n){return t.t-n.t}function tt(t,n,r,i,o){var u,a="@"===r[0],l="#"===r[0],s=$[r],f=q;switch(a?(u=r.substr(1),r=u.replace(Q,H)):l&&(r=r.substr(1)),e(s)){case"function":if(f=s(i,o,K,Z,r,a,n,t),l)return f;break;case"string":f=W(i,J(s));break;case"object":if((f=W(i,J(s.i),s.f))&&"function"==typeof s.u)return s.u(n,f,r,a,t)}return f?function(t,n,e){if(arguments.length>3&&void 0!==arguments[3]&&arguments[3])return t instanceof U?function(r){return t.style(n,e(r))}:function(r){return t.style[n]=e(r)};if(Array.isArray(n)){var r=n.length;return function(i){var o=e(i);if(null==o)for(var u=0;u<r;u++)t[u].removeAttribute(n);else for(var a=0;a<r;a++)t[a].setAttribute(n,o)}}return function(r){var i=e(r);null==i?t.removeAttribute(n):t.setAttribute(n,i)}}(n,r,f,a):null}function nt(t,n,r,i){if(!i||"object"!==e(i))return null;var o=null,u=null;return Array.isArray(i)?u=function(t){if(!t||!t.length)return null;for(var n=0;n<t.length;n++)t[n].e&&(t[n].e=Z(t[n].e));return t.sort(X)}(i):(u=i.keys,o=i.data||null),u?tt(t,n,r,u,o):null}function et(t,n,e){if(!e)return null;var r=[];for(var i in e)if(e.hasOwnProperty(i)){var o=nt(t,n,i,e[i]);o&&r.push(o)}return r.length?r:null}function rt(t,n){if(!n.settings.duration||n.settings.duration<0)return null;var e,r,i,o,u,a=function(t,n){if(!n)return null;var e=[];if(Array.isArray(n))for(var r=n.length,i=0;i<r;i++){var o=n[i];if(2===o.length){var u=null;if("string"==typeof o[0])u=t.getElementById(o[0]);else if(Array.isArray(o[0])){u=[];for(var a=0;a<o[0].length;a++)if("string"==typeof o[0][a]){var l=t.getElementById(o[0][a]);l&&u.push(l)}u=u.length?1===u.length?u[0]:new U(u):null}if(u){var s=et(t,u,o[1]);s&&(e=e.concat(s))}}}else for(var f in n)if(n.hasOwnProperty(f)){var c=t.getElementById(f);if(c){var h=et(t,c,n[f]);h&&(e=e.concat(h))}}return e.length?e:null}(t,n.elements);return a?(e=a,r=n.settings,i=r.duration,o=e.length,u=null,function(t,n){var a=r.iterations||1/0,l=(r.alternate&&a%2==0)^r.direction>0?i:0,s=t%i,f=1+(t-s)/i;n*=r.direction,r.alternate&&f%2==0&&(n=-n);var c=!1;if(f>a)s=l,c=!0,-1===r.fill&&(s=r.direction>0?0:i);else if(n<0&&(s=i-s),s===u)return!1;u=s;for(var h=0;h<o;h++)e[h](s);return c}):null}function it(t,n){for(var e=n.querySelectorAll("svg"),r=0;r<e.length;r++)if(e[r].id===t.root&&!e[r].svgatorAnimation)return e[r].svgatorAnimation=!0,e[r];return null}function ot(t){var n=function(t){return t.shadowRoot};return document?Array.from(t.querySelectorAll(":not("+["a","area","audio","br","canvas","circle","datalist","embed","g","head","hr","iframe","img","input","link","object","path","polygon","rect","script","source","style","svg","title","track","video"].join()+")")).filter(n).map(n):[]}function ut(t){var n=arguments.length>1&&void 0!==arguments[1]?arguments[1]:document,e=arguments.length>2&&void 0!==arguments[2]?arguments[2]:0,r=it(t,n);if(r)return r;if(e>=20)return null;for(var i=ot(n),o=0;o<i.length;o++){var u=ut(t,i[o],e+1);if(u)return u}return null}function at(t,n){if($=n,!t||!t.root||!Array.isArray(t.animations))return null;var e=ut(t);if(!e)return null;var r=t.animations.map((function(t){return rt(e,t)})).filter((function(t){return!!t}));return r.length?{svg:e,animations:r,animationSettings:t.animationSettings,options:t.options||void 0}:null}function lt(t){var n=arguments.length>1&&void 0!==arguments[1]?arguments[1]:null,e=arguments.length>2&&void 0!==arguments[2]?arguments[2]:Number,r=arguments.length>3&&void 0!==arguments[3]?arguments[3]:"undefined"!=typeof BigInt&&BigInt,i="0x"+(t.replace(/[^0-9a-fA-F]+/g,"")||27);return n&&r&&e.isSafeInteger&&!e.isSafeInteger(+i)?e(r(i))%n+n:+i}function st(t,n,e){return!t||!e||n>t.length?t:t.substring(0,n)+st(t.substring(n+1),e,e)}function ft(t){var n=arguments.length>1&&void 0!==arguments[1]?arguments[1]:27;return!t||t%n?t%n:[0,1].includes(n)?n:ft(t/n,n)}function ct(t,n,e){if(t&&t.length){var r=lt(e),i=ft(r)+5,o=st(t,ft(r,5),i);return o=o.replace(/\x7c$/g,"==").replace(/\x2f$/g,"="),o=function(t,n,e){var r=+("0x"+t.substring(0,4));t=t.substring(4);for(var i=lt(n,r)%r+e%27,o=[],u=0;u<t.length;u+=2)if("|"!==t[u]){var a=+("0x"+t[u]+t[u+1])-i;o.push(a)}else{var l=+("0x"+t.substring(u+1,u+1+4))-i;u+=3,o.push(l)}return String.fromCharCode.apply(String,o)}(o=(o=atob(o)).replace(/[\x41-\x5A]/g,""),n,r),o=JSON.parse(o)}}var ht=[{key:"alternate",def:!1},{key:"fill",def:1},{key:"iterations",def:0},{key:"direction",def:1},{key:"speed",def:1},{key:"fps",def:100}],vt=function(){function t(n,e){var i=this,o=arguments.length>2&&void 0!==arguments[2]?arguments[2]:null;r(this,t),this._id=0,this._running=!1,this._rollingBack=!1,this._animations=n,this._settings=e,(!o||o<"2022-05-02")&&delete this._settings.speed,ht.forEach((function(t){i._settings[t.key]=i._settings[t.key]||t.def})),this.duration=e.duration,this.offset=e.offset||0,this.rollbackStartOffset=0}return o(t,[{key:"alternate",get:function(){return this._settings.alternate}},{key:"fill",get:function(){return this._settings.fill}},{key:"iterations",get:function(){return this._settings.iterations}},{key:"direction",get:function(){return this._settings.direction}},{key:"speed",get:function(){return this._settings.speed}},{key:"fps",get:function(){return this._settings.fps}},{key:"maxFiniteDuration",get:function(){return this.iterations>0?this.iterations*this.duration:this.duration}},{key:"_apply",value:function(t){for(var n=arguments.length>1&&void 0!==arguments[1]?arguments[1]:{},e=this._animations,r=e.length,i=0,o=0;o<r;o++)n[o]?i++:(n[o]=e[o](t,1),n[o]&&i++);return i}},{key:"_rollback",value:function(t){var n=this,e=1/0,r=null;this.rollbackStartOffset=t,this._rollingBack=!0,this._running=!0;this._id=window.requestAnimationFrame((function i(o){if(n._rollingBack){null==r&&(r=o);var u=Math.round(t-(o-r)*n.speed);if(u>n.duration&&e!==1/0){var a=!!n.alternate&&u/n.duration%2>1,l=u%n.duration;u=(l+=a?n.duration:0)||n.duration}var s=(n.fps?1e3/n.fps:0)*n.speed,f=Math.max(0,u);f<=e-s&&(n.offset=f,e=f,n._apply(f));var c=n.iterations>0&&-1===n.fill&&u>=n.maxFiniteDuration;(u<=0||n.offset<u||c)&&n.stop(),n._id=window.requestAnimationFrame(i)}}))}},{key:"_start",value:function(){var t=this,n=arguments.length>0&&void 0!==arguments[0]?arguments[0]:0,e=-1/0,r=null,i={};this._running=!0;var o=function o(u){null==r&&(r=u);var a=Math.round((u-r)*t.speed+n),l=(t.fps?1e3/t.fps:0)*t.speed;if(a>=e+l&&!t._rollingBack&&(t.offset=a,e=a,t._apply(a,i)===t._animations.length))return void t.pause(!0);t._id=window.requestAnimationFrame(o)};this._id=window.requestAnimationFrame(o)}},{key:"_pause",value:function(){this._id&&window.cancelAnimationFrame(this._id),this._running=!1}},{key:"play",value:function(){if(!this._running)return this._rollingBack?this._rollback(this.offset):this._start(this.offset)}},{key:"stop",value:function(){this._pause(),this.offset=0,this.rollbackStartOffset=0,this._rollingBack=!1,this._apply(0)}},{key:"reachedToEnd",value:function(){return this.iterations>0&&this.offset>=this.iterations*this.duration}},{key:"restart",value:function(){var t=arguments.length>0&&void 0!==arguments[0]&&arguments[0];this.stop(t),this.play(t)}},{key:"pause",value:function(){this._pause()}},{key:"reverse",value:function(){this.direction=-this.direction}}],[{key:"build",value:function(t,n){delete t.animationSettings,t.options=ct(t.options,t.root,"5c7f360c"),t.animations.map((function(n){n.settings=ct(n.s,t.root,"5c7f360c"),delete n.s,t.animationSettings||(t.animationSettings=n.settings)}));var e=t.version;if(!(t=at(t,n)))return null;var r=t.options||{},i=new this(t.animations,t.animationSettings,e);return{el:t.svg,options:r,player:i}}},{key:"push",value:function(t){return this.build(t)}},{key:"init",value:function(){var t=this,n=window.__SVGATOR_PLAYER__&&window.__SVGATOR_PLAYER__["5c7f360c"];Array.isArray(n)&&n.splice(0).forEach((function(n){return t.build(n)}))}}]),t}();function yt(t){return p(t)+""}function gt(t){var n=arguments.length>1&&void 0!==arguments[1]?arguments[1]:" ";return t&&t.length?t.map(yt).join(n):""}function dt(t){if(!t)return"transparent";if(null==t.a||t.a>=1){var n=function(t){return 1===(t=parseInt(t).toString(16)).length?"0"+t:t},e=function(t){return t.charAt(0)===t.charAt(1)},r=n(t.r),i=n(t.g),o=n(t.b);return e(r)&&e(i)&&e(o)&&(r=r.charAt(0),i=i.charAt(0),o=o.charAt(0)),"#"+r+i+o}return"rgba("+t.r+","+t.g+","+t.b+","+t.a+")"}function pt(t){return t?"url(#"+t+")":"none"}!function(){for(var t=0,n=["ms","moz","webkit","o"],e=0;e<n.length&&!window.requestAnimationFrame;++e)window.requestAnimationFrame=window[n[e]+"RequestAnimationFrame"],window.cancelAnimationFrame=window[n[e]+"CancelAnimationFrame"]||window[n[e]+"CancelRequestAnimationFrame"];window.requestAnimationFrame||(window.requestAnimationFrame=function(n){var e=Date.now(),r=Math.max(0,16-(e-t)),i=window.setTimeout((function(){n(e+r)}),r);return t=e+r,i},window.cancelAnimationFrame=window.clearTimeout)}();var mt={f:null,i:function(t,n,e){return 0===t?n:1===t?e:{x:D(t,n.x,e.x),y:D(t,n.y,e.y)}},u:function(t,n){return function(e){var r=n(e);t.setAttribute("rx",yt(r.x)),t.setAttribute("ry",yt(r.y))}}},bt={f:null,i:function(t,n,e){return 0===t?n:1===t?e:{width:D(t,n.width,e.width),height:D(t,n.height,e.height)}},u:function(t,n){return function(e){var r=n(e);t.setAttribute("width",yt(r.width)),t.setAttribute("height",yt(r.height))}}};Object.freeze({M:2,L:2,Z:0,H:1,V:1,C:6,Q:4,T:2,S:4,A:7});var wt={},At=null;function _t(t){var n=function(){if(At)return At;if("object"!==("undefined"==typeof document?"undefined":e(document))||!document.createElementNS)return{};var t=document.createElementNS("http://www.w3.org/2000/svg","svg");return t&&t.style?(t.style.position="absolute",t.style.opacity="0.01",t.style.zIndex="-9999",t.style.left="-9999px",t.style.width="1px",t.style.height="1px",At={svg:t}):{}}().svg;if(!n)return function(t){return null};var r=document.createElementNS(n.namespaceURI,"path");r.setAttributeNS(null,"d",t),r.setAttributeNS(null,"fill","none"),r.setAttributeNS(null,"stroke","none"),n.appendChild(r);var i=r.getTotalLength();return function(t){var n=r.getPointAtLength(i*t);return{x:n.x,y:n.y}}}function xt(t){return wt[t]?wt[t]:wt[t]=_t(t)}function kt(t,n,e,r){if(!t||!r)return!1;var i=["M",t.x,t.y];if(n&&e&&(i.push("C"),i.push(n.x),i.push(n.y),i.push(e.x),i.push(e.y)),n?!e:e){var o=n||e;i.push("Q"),i.push(o.x),i.push(o.y)}return n||e||i.push("L"),i.push(r.x),i.push(r.y),i.join(" ")}function St(t,n,e,r){var i=arguments.length>4&&void 0!==arguments[4]?arguments[4]:1,o=kt(t,n,e,r),u=xt(o);try{return u(i)}catch(t){return null}}function Ot(t,n,e){return t+(n-t)*e}function jt(t,n,e){var r=arguments.length>3&&void 0!==arguments[3]&&arguments[3],i={x:Ot(t.x,n.x,e),y:Ot(t.y,n.y,e)};return r&&(i.a=Mt(t,n)),i}function Mt(t,n){return Math.atan2(n.y-t.y,n.x-t.x)}function Et(t,n,e,r){var i=1-r;return i*i*t+2*i*r*n+r*r*e}function Pt(t,n,e,r){return 2*(1-r)*(n-t)+2*r*(e-n)}function It(t,n,e,r){var i=arguments.length>4&&void 0!==arguments[4]&&arguments[4],o=St(t,n,null,e,r);return o||(o={x:Et(t.x,n.x,e.x,r),y:Et(t.y,n.y,e.y,r)}),i&&(o.a=Rt(t,n,e,r)),o}function Rt(t,n,e,r){return Math.atan2(Pt(t.y,n.y,e.y,r),Pt(t.x,n.x,e.x,r))}function Ft(t,n,e,r,i){var o=i*i;return i*o*(r-t+3*(n-e))+3*o*(t+e-2*n)+3*i*(n-t)+t}function Nt(t,n,e,r,i){var o=1-i;return 3*(o*o*(n-t)+2*o*i*(e-n)+i*i*(r-e))}function Tt(t,n,e,r,i){var o=arguments.length>5&&void 0!==arguments[5]&&arguments[5],u=St(t,n,e,r,i);return u||(u={x:Ft(t.x,n.x,e.x,r.x,i),y:Ft(t.y,n.y,e.y,r.y,i)}),o&&(u.a=qt(t,n,e,r,i)),u}function qt(t,n,e,r,i){return Math.atan2(Nt(t.y,n.y,e.y,r.y,i),Nt(t.x,n.x,e.x,r.x,i))}function Bt(t,n,e){var r=arguments.length>3&&void 0!==arguments[3]&&arguments[3];if(Lt(n)){if(Ct(e))return It(n,e.start,e,t,r)}else if(Lt(e)){if(Vt(n))return It(n,n.end,e,t,r)}else{if(Vt(n))return Ct(e)?Tt(n,n.end,e.start,e,t,r):It(n,n.end,e,t,r);if(Ct(e))return It(n,e.start,e,t,r)}return jt(n,e,t,r)}function Dt(t,n,e){var r=Bt(t,n,e,!0);return r.a=function(t){return arguments.length>1&&void 0!==arguments[1]&&arguments[1]?t+Math.PI:t}(r.a)/b,r}function Lt(t){return!t.type||"corner"===t.type}function Ct(t){return null!=t.start&&!Lt(t)}function Vt(t){return null!=t.end&&!Lt(t)}var Gt=new T;var zt={f:yt,i:B},Yt={f:yt,i:L};function $t(t,n,e){return t.map((function(t){return function(t,n,e){var r=t.v;if(!r||"g"!==r.t||r.s||!r.v||!r.r)return t;var i=e.getElementById(r.r),o=i&&i.querySelectorAll("stop")||[];return r.s=r.v.map((function(t,n){var e=o[n]&&o[n].getAttribute("offset");return{c:t,o:e=p(parseInt(e)/100)}})),delete r.v,t}(t,0,e)}))}var Ut={gt:"gradientTransform",c:{x:"cx",y:"cy"},rd:"r",f:{x:"x1",y:"y1"},to:{x:"x2",y:"y2"}};function Qt(t,n,r,i,o,u,a,l){return $t(t,0,l),n=function(t,n,e){for(var r,i,o,u=t.length-1,a={},l=0;l<=u;l++)(r=t[l]).e&&(r.e=n(r.e)),r.v&&"g"===(i=r.v).t&&i.r&&(o=e.getElementById(i.r))&&(a[i.r]={e:o,s:o.querySelectorAll("stop")});return a}(t,i,l),function(i){var o=r(i,t,Ht);if(!o)return"none";if("c"===o.t)return dt(o.v);if("g"===o.t){if(!n[o.r])return pt(o.r);var u=n[o.r];return function(t,n){for(var e=t.s,r=e.length;r<n.length;r++){var i=e[e.length-1].cloneNode();i.id=Kt(i.id),t.e.appendChild(i),e=t.s=t.e.querySelectorAll("stop")}for(var o=0,u=e.length,a=n.length-1;o<u;o++)e[o].setAttribute("stop-color",dt(n[Math.min(o,a)].c)),e[o].setAttribute("offset",n[Math.min(o,a)].o)}(u,o.s),Object.keys(Ut).forEach((function(t){if(void 0!==o[t])if("object"!==e(Ut[t])){var n,r="gt"===t?(n=o[t],Array.isArray(n)?"matrix("+n.join(" ")+")":""):o[t],i=Ut[t];u.e.setAttribute(i,r)}else Object.keys(Ut[t]).forEach((function(n){if(void 0!==o[t][n]){var e=o[t][n],r=Ut[t][n];u.e.setAttribute(r,e)}}))})),pt(o.r)}return"none"}}function Ht(t,e,r){if(0===t)return e;if(1===t)return r;if(e&&r){var i=e.t;if(i===r.t)switch(e.t){case"c":return{t:i,v:G(t,e.v,r.v)};case"g":if(e.r===r.r){var o={t:i,s:Jt(t,e.s,r.s),r:e.r};return e.gt&&r.gt&&(o.gt=function(t,n,e){var r=n.length;if(r!==e.length)return q(t,n,e);for(var i=new Array(r),o=0;o<r;o++)i[o]=B(t,n[o],e[o]);return i}(t,e.gt,r.gt)),e.c?(o.c=C(t,e.c,r.c),o.rd=D(t,e.rd,r.rd)):e.f&&(o.f=C(t,e.f,r.f),o.to=C(t,e.to,r.to)),o}}if("c"===e.t&&"g"===r.t||"c"===r.t&&"g"===e.t){var u="c"===e.t?e:r,a="g"===e.t?n({},e):n({},r),l=a.s.map((function(t){return{c:u.v,o:t.o}}));return a.s="c"===e.t?Jt(t,l,a.s):Jt(t,a.s,l),a}}return q(t,e,r)}function Jt(t,n,e){if(n.length===e.length)return n.map((function(n,r){return Zt(t,n,e[r])}));for(var r=Math.max(n.length,e.length),i=[],o=0;o<r;o++){var u=Zt(t,n[Math.min(o,n.length-1)],e[Math.min(o,e.length-1)]);i.push(u)}return i}function Zt(t,n,e){return{o:L(t,n.o,e.o||0),c:G(t,n.c,e.c||{})}}function Kt(t){return t.replace(/-fill-([0-9]+)$/,(function(t,n){return"-fill-"+(+n+1)}))}var Wt={fill:Qt,"fill-opacity":Yt,stroke:Qt,"stroke-opacity":Yt,"stroke-width":zt,"stroke-dashoffset":{f:yt,i:B},"stroke-dasharray":{f:function(t){var n=arguments.length>1&&void 0!==arguments[1]?arguments[1]:" ";return t&&t.length>0&&(t=t.map((function(t){return p(t,4)}))),gt(t,n)},i:function(t,n,e){var r,i,o,u=n.length,a=e.length;if(u!==a)if(0===u)n=z(u=a,0);else if(0===a)a=u,e=z(u,0);else{var l=(o=(r=u)*(i=a)/function(t,n){for(var e;n;)e=n,n=t%n,t=e;return t||1}(r,i))<0?-o:o;n=Y(n,Math.floor(l/u)),e=Y(e,Math.floor(l/a)),u=a=l}for(var s=[],f=0;f<u;f++)s.push(p(D(t,n[f],e[f])));return s}},opacity:Yt,transform:function(t,n,r,i){if(!(t=function(t,n){if(!t||"object"!==e(t))return null;var r=!1;for(var i in t)t.hasOwnProperty(i)&&(t[i]&&t[i].length?(t[i].forEach((function(t){t.e&&(t.e=n(t.e))})),r=!0):delete t[i]);return r?t:null}(t,i)))return null;var o=function(e,i,o){var u=arguments.length>3&&void 0!==arguments[3]?arguments[3]:null;return t[e]?r(i,t[e],o):n&&n[e]?n[e]:u};return n&&n.a&&t.o?function(n){var e=r(n,t.o,Dt);return Gt.recomposeSelf(e,o("r",n,B,0)+e.a,o("k",n,C),o("s",n,C),o("t",n,C)).toString()}:function(t){return Gt.recomposeSelf(o("o",t,Bt,null),o("r",t,B,0),o("k",t,C),o("s",t,C),o("t",t,C)).toString()}},r:zt,"#size":bt,"#radius":mt,_:function(t,n){if(Array.isArray(t))for(var e=0;e<t.length;e++)this[t[e]]=n;else this[t]=n}},Xt=function(t){!function(t,n){if("function"!=typeof n&&null!==n)throw new TypeError("Super expression must either be null or a function");t.prototype=Object.create(n&&n.prototype,{constructor:{value:t,writable:!0,configurable:!0}}),n&&l(t,n)}(u,t);var n,e,i=(n=u,e=s(),function(){var t,r=a(n);if(e){var i=a(this).constructor;t=Reflect.construct(r,arguments,i)}else t=r.apply(this,arguments);return c(this,t)});function u(){return r(this,u),i.apply(this,arguments)}return o(u,null,[{key:"build",value:function(t){var n=h(a(u),"build",this).call(this,t,Wt);if(!n)return null;n.el,n.options,function(t,n,e){t.play()}(n.player)}}]),u}(vt);return Xt.init(),Xt}));
(function(s,i,o,w,d,a,b){w[o]=w[o]||{};w[o][s]=w[o][s]||[];w[o][s].push(i);})('5c7f360c',{"root":"eyQDFVzXaHT1","version":"2022-05-04","animations":[{"elements":{"eyQDFVzXaHT6":{"opacity":[{"t":100,"v":0.63},{"t":1100,"v":1}]},"eyQDFVzXaHT12":{"opacity":[{"t":200,"v":0},{"t":2800,"v":1}]},"eyQDFVzXaHT13":{"#size":[{"t":100,"v":{"width":10,"height":24.76}},{"t":1500,"v":{"width":136.92,"height":24.76}},{"t":1600,"v":{"width":10,"height":24.76}},{"t":3000,"v":{"width":136.92,"height":24.76}}]},"eyQDFVzXaHT15":{"transform":{"data":{"o":{"x":149.19,"y":234.539993,"type":"corner"},"t":{"x":-149.189999,"y":-234.539993}},"keys":{"r":[{"t":0,"v":0},{"t":2500,"v":720}]}}},"eyQDFVzXaHT16":{"#size":[{"t":400,"v":{"width":0,"height":25.56}},{"t":1700,"v":{"width":98.3,"height":25.56}},{"t":1800,"v":{"width":5,"height":25.56}},{"t":2900,"v":{"width":98.3,"height":25.56}}]}},"s":"MGDA1ZDliQzQyODQ5NTTkyODE5NDg5OGY4ZTQTyNWE1MzUwNTA1MDRjUNDI4NEU4OTkyODU4MWzk0ODk4ZjhlNDI1YTDUxNGM0MlI4OTk0ODUH5MjgxOTRUODk4ZlU4TZTkzNDI1YTUxNGM0MDjg2ODlHOGM4YzQyNWRE1MTRjNDI4MThjOTQT4NTkyOGU4MTk0ODU0CMjVhODY4MThjOTM4NITRjNDI5MzkwODU4NTNg0NDI1YTUxNGM0MjgP2OTA5MzQyNWE1MTUwVNTA5ZA|"}],"options":"MKDAxMDg4MmY4MDgxNmXVPN2ZEODEyZjQ3MmYD3OTdjNmU3MTJmOGE/J"},'__SVGATOR_PLAYER__',window,document)
]]></script>
</svg>
