<?xml version="1.0" encoding="UTF-8" standalone="no"?>
<!DOCTYPE svg PUBLIC "-//W3C//DTD SVG 1.1//EN" "http://www.w3.org/Graphics/SVG/1.1/DTD/svg11.dtd">
<svg xmlns="http://www.w3.org/2000/svg" version="1.1" viewBox="0.00 0.00 684.00 413.00">
<g stroke-width="2.00" fill="none" stroke-linecap="butt">
<path stroke="#979c9e" vector-effect="non-scaling-stroke" d="
  M 534.97 99.58
  Q 535.16 84.23 535.19 70.19
  C 535.22 57.42 530.40 46.83 517.93 42.17
  Q 514.00 40.70 508.19 40.68
  Q 424.38 40.32 354.93 40.61
  A 1.55 1.54 -9.1 0 1 353.46 39.55
  C 352.42 36.42 348.51 35.64 345.50 35.57
  Q 334.09 35.31 322.31 35.45
  C 317.92 35.50 315.15 36.62 312.49 39.99
  A 1.93 1.91 -70.7 0 1 310.98 40.73
  Q 241.64 40.78 171.67 40.41
  Q 160.84 40.35 155.87 42.01
  C 145.81 45.37 138.93 54.63 138.51 65.36
  Q 138.46 66.53 137.29 66.53
  Q 117.44 66.50 96.72 66.59
  Q 78.66 66.66 64.27 77.73
  C 53.72 85.85 46.58 100.49 45.34 113.88
  C 44.30 125.12 45.79 136.79 50.10 147.24
  Q 51.86 151.52 51.86 155.04
  Q 51.81 227.91 51.69 302.12
  Q 51.68 313.85 53.15 319.76
  C 56.81 334.43 67.75 346.58 82.24 351.38
  Q 88.56 353.47 96.75 353.47
  Q 115.98 353.47 136.39 353.56
  A 1.94 1.94 0.0 0 1 138.28 355.06
  C 139.73 361.29 142.88 365.54 147.86 370.61
  C 151.65 374.46 155.44 378.33 159.12 382.35
  C 165.83 389.67 174.93 394.06 184.85 393.04
  C 193.98 392.11 198.94 383.43 201.72 375.55
  A 1.95 1.94 -80.2 0 1 203.55 374.25
  Q 251.67 374.15 304.22 374.02
  C 306.82 374.01 308.13 372.92 309.94 371.39
  C 312.96 368.85 316.55 368.12 320.37 368.18
  Q 331.90 368.37 342.74 367.97
  C 347.76 367.79 351.81 369.15 355.11 372.96
  A 3.04 3.03 69.8 0 0 357.35 374.00
  Q 362.49 374.08 367.75 374.10
  Q 431.89 374.35 496.45 374.28
  C 502.03 374.27 507.57 374.37 512.54 373.39
  Q 529.54 370.04 534.65 354.71
  C 535.84 351.14 535.62 347.30 535.60 343.50
  Q 535.42 312.53 535.60 272.19
  A 0.49 0.48 -89.4 0 1 536.08 271.71
  Q 559.56 271.76 583.82 271.75
  Q 592.24 271.75 596.37 264.86
  C 598.13 261.91 598.42 258.60 598.42 255.16
  Q 598.54 188.31 598.48 116.69
  C 598.47 112.17 597.03 108.33 593.50 105.25
  C 589.15 101.45 583.61 100.69 577.96 100.66
  Q 557.58 100.56 535.92 100.55
  A 0.96 0.95 -89.7 0 1 534.97 99.58"
/>
<path stroke="#979c9e" vector-effect="non-scaling-stroke" d="
  M 628.71 193.83
  C 630.41 190.19 632.87 187.74 637.02 187.65
  A 0.98 0.95 -69.2 0 0 637.71 187.33
  Q 638.34 186.63 637.83 186.03
  Q 637.48 185.61 636.96 185.41
  Q 630.76 183.00 628.82 176.71
  A 0.80 0.80 0.0 0 0 627.39 176.51
  Q 626.25 178.27 625.45 180.12
  C 624.28 182.88 621.34 184.17 618.65 184.87
  Q 616.45 185.44 618.52 186.37
  C 622.27 188.04 626.12 189.82 627.75 193.81
  A 0.53 0.52 -43.6 0 0 628.71 193.83"
/>
<path stroke="#979c9e" vector-effect="non-scaling-stroke" d="
  M 595.89 330.43
  C 597.61 331.61 597.80 333.87 598.92 335.56
  A 0.97 0.96 -48.9 0 0 600.59 335.44
  C 602.57 331.38 602.95 327.89 608.71 328.20
  Q 609.35 328.24 609.51 327.62
  Q 609.63 327.15 609.25 326.85
  Q 602.87 321.93 599.93 316.38
  Q 599.53 315.63 599.26 316.44
  C 597.88 320.56 592.95 324.47 589.65 326.71
  Q 588.73 327.32 589.79 327.62
  Q 593.14 328.54 595.89 330.43"
/>
<path stroke="#3a5d82" vector-effect="non-scaling-stroke" d="
  M 344.7814 54.4406
  A 8.36 8.36 0.0 0 0 337.0561 45.4908
  L 332.2690 45.1393
  A 8.36 8.36 0.0 0 0 323.3192 52.8645
  L 323.1786 54.7794
  A 8.36 8.36 0.0 0 0 330.9039 63.7292
  L 335.6910 64.0807
  A 8.36 8.36 0.0 0 0 344.6408 56.3555
  L 344.7814 54.4406"
/>
<path stroke="#989da1" vector-effect="non-scaling-stroke" d="
  M 65.78 161.97
  A 0.54 0.54 0.0 0 1 65.27 162.77
  L 60.51 162.41
  Q 59.76 162.35 59.76 163.10
  Q 59.93 237.02 59.65 303.80
  Q 59.61 312.28 60.66 316.68
  C 63.76 329.72 74.12 340.43 86.82 343.91
  Q 91.98 345.33 106.03 345.20
  Q 135.77 344.93 165.20 346.27
  Q 171.15 346.54 178.01 345.37
  C 199.42 341.72 220.83 330.60 237.09 316.49
  C 251.66 303.85 261.79 288.56 264.72 270.06
  Q 266.90 256.26 265.37 242.83
  C 263.42 225.61 255.48 209.86 244.48 196.18
  C 231.10 179.54 215.04 164.74 197.48 152.11
  Q 171.69 133.57 141.19 124.15
  Q 132.18 121.37 124.96 120.39
  C 111.45 118.56 95.29 121.98 86.81 133.45
  Q 81.41 140.76 81.85 148.59
  Q 81.89 149.26 81.22 149.23
  L 76.74 149.02
  A 0.76 0.76 0.0 0 1 76.01 148.26
  C 76.09 134.89 85.43 122.99 97.49 117.77
  C 110.23 112.25 124.70 112.77 137.80 117.23
  A 0.54 0.54 0.0 0 0 138.51 116.72
  L 138.52 75.30
  A 0.53 0.53 0.0 0 0 137.99 74.77
  Q 119.98 74.55 101.05 74.52
  C 84.73 74.50 71.02 79.01 61.50 92.73
  C 50.05 109.22 52.41 132.13 59.81 149.72
  Q 62.57 156.25 65.78 161.97"
/>
<path stroke="#989da1" vector-effect="non-scaling-stroke" d="
  M 273.82 262.27
  C 272.37 281.34 265.35 298.57 252.76 312.33
  Q 241.24 324.92 226.46 334.78
  C 222.91 337.16 219.40 339.24 215.61 341.09
  A 0.44 0.44 0.0 0 0 215.80 341.92
  L 500.48 341.50
  A 1.24 1.23 -0.0 0 0 501.72 340.27
  L 501.75 279.46
  A 0.85 0.85 0.0 0 0 500.33 278.83
  Q 490.83 287.31 481.39 295.78
  Q 479.20 297.75 476.53 298.39
  C 472.67 299.32 469.75 294.79 469.51 291.46
  Q 468.85 282.21 469.10 272.02
  A 0.91 0.91 0.0 0 0 468.21 271.09
  Q 460.23 270.94 453.97 270.93
  C 446.61 270.92 441.05 268.69 438.12 261.96
  C 436.64 258.59 436.90 253.57 436.89 249.74
  Q 436.69 187.86 436.63 122.55
  C 436.63 113.02 437.43 105.80 446.46 101.57
  Q 449.63 100.09 458.68 100.16
  Q 479.28 100.31 500.61 100.22
  A 0.89 0.89 0.0 0 0 501.50 99.39
  C 502.02 91.79 501.82 83.64 501.89 75.10
  A 0.41 0.40 90.0 0 0 501.49 74.69
  L 174.44 74.80
  A 1.01 1.01 0.0 0 0 173.43 75.81
  L 173.51 126.47
  A 2.24 2.22 14.0 0 0 174.70 128.44
  Q 211.92 148.03 241.15 179.92
  Q 252.74 192.56 260.49 205.40
  Q 276.17 231.41 273.82 262.27"
/>
<path stroke="#3a5d82" vector-effect="non-scaling-stroke" d="
  M 477.85 262.73
  A 0.79 0.79 0.0 0 1 478.52 263.51
  L 478.45 283.81
  Q 478.44 286.15 480.07 284.48
  Q 490.40 273.92 501.36 264.25
  Q 502.53 263.22 504.22 263.22
  Q 543.65 263.18 583.20 262.62
  Q 585.52 262.59 587.54 261.94
  Q 588.02 261.78 588.23 261.32
  Q 589.27 259.00 589.27 256.45
  Q 589.23 180.69 589.44 118.14
  C 589.46 111.04 584.44 109.56 578.50 109.49
  Q 560.67 109.28 544.46 109.41
  Q 505.36 109.71 456.50 109.44
  C 444.87 109.37 445.06 116.79 445.09 126.21
  Q 445.31 192.35 445.69 254.09
  C 445.71 258.41 448.47 262.18 452.97 262.29
  Q 462.64 262.55 472.64 262.37
  Q 475.24 262.33 477.85 262.73"
/>
<path stroke="#9dc1a8" vector-effect="non-scaling-stroke" d="
  M 158.8738 320.5799
  A 70.92 67.29 89.9 0 0 226.0399 249.5426
  A 70.92 67.29 89.9 0 0 158.6262 178.7401
  A 70.92 67.29 89.9 0 0 91.4601 249.7774
  A 70.92 67.29 89.9 0 0 158.8738 320.5799"
/>
<path stroke="#9dc1a8" vector-effect="non-scaling-stroke" d="
  M 374.44 83.08
  C 370.20 80.79 367.28 82.01 364.09 85.13
  Q 351.64 97.30 338.85 108.84
  C 337.39 110.16 335.20 112.67 333.04 110.73
  Q 328.26 106.45 322.91 101.50
  Q 317.08 96.12 310.47 100.23
  C 305.56 103.28 301.81 110.01 306.64 114.95
  Q 315.17 123.67 323.40 132.30
  C 326.70 135.75 331.04 139.16 335.92 138.41
  C 341.36 137.58 344.20 134.12 348.73 129.45
  Q 362.36 115.40 376.27 102.79
  Q 380.56 98.90 381.81 96.50
  C 384.60 91.15 379.07 85.57 374.44 83.08"
/>
<path stroke="#f9d4a0" vector-effect="non-scaling-stroke" d="
  M 217.0311 95.2284
  A 0.81 0.81 0.0 0 0 216.2196 94.4198
  L 193.0997 94.4602
  A 0.81 0.81 0.0 0 0 192.2911 95.2716
  L 192.3289 116.9516
  A 0.81 0.81 0.0 0 0 193.1404 117.7602
  L 216.2603 117.7198
  A 0.81 0.81 0.0 0 0 217.0689 116.9084
  L 217.0311 95.2284"
/>
<path stroke="#a1bedf" vector-effect="non-scaling-stroke" d="
  M 260.0907 94.9181
  A 0.68 0.68 0.0 0 0 259.4095 94.2393
  L 235.6695 94.2807
  A 0.68 0.68 0.0 0 0 234.9907 94.9619
  L 235.0293 117.0619
  A 0.68 0.68 0.0 0 0 235.7105 117.7407
  L 259.4505 117.6993
  A 0.68 0.68 0.0 0 0 260.1293 117.0181
  L 260.0907 94.9181"
/>
<path stroke="#989da1" vector-effect="non-scaling-stroke" d="
  M 422.16 165.02
  A 12.35 12.35 0.0 0 0 409.81 152.67
  L 289.41 152.67
  A 12.35 12.35 0.0 0 0 277.06 165.02
  L 277.06 166.44
  A 12.35 12.35 0.0 0 0 289.41 178.79
  L 409.81 178.79
  A 12.35 12.35 0.0 0 0 422.16 166.44
  L 422.16 165.02"
/>
<path stroke="#989da1" vector-effect="non-scaling-stroke" d="
  M 381.0493 206.8791
  A 13.08 13.08 0.0 0 0 367.9465 193.8220
  L 289.9866 193.9581
  A 13.08 13.08 0.0 0 0 276.9295 207.0609
  L 276.9307 207.7809
  A 13.08 13.08 0.0 0 0 290.0335 220.8380
  L 367.9934 220.7019
  A 13.08 13.08 0.0 0 0 381.0505 207.5991
  L 381.0493 206.8791"
/>
<path stroke="#f9d4a0" vector-effect="non-scaling-stroke" d="
  M 350.7166 245.5939
  A 15.57 13.24 -1.2 0 0 334.8727 232.6829
  A 15.57 13.24 -1.2 0 0 319.5834 246.2461
  A 15.57 13.24 -1.2 0 0 335.4273 259.1571
  A 15.57 13.24 -1.2 0 0 350.7166 245.5939"
/>
<path stroke="#f9d4a0" vector-effect="non-scaling-stroke" d="
  M 451.1296 304.3353
  A 11.21 11.21 0.0 0 0 439.9000 293.1449
  L 285.0402 293.4152
  A 11.21 11.21 0.0 0 0 273.8498 304.6447
  L 273.8504 305.0047
  A 11.21 11.21 0.0 0 0 285.0800 316.1951
  L 439.9398 315.9248
  A 11.21 11.21 0.0 0 0 451.1302 304.6953
  L 451.1296 304.3353"
/>
<path stroke="#408189" vector-effect="non-scaling-stroke" d="
  M 510.09 251.31
  Q 523.00 252.68 532.93 250.46
  C 553.51 245.84 571.91 227.04 577.58 206.89
  C 581.02 194.64 580.95 179.31 575.95 167.41
  C 568.25 149.10 554.81 136.68 536.76 129.09
  Q 527.54 125.21 516.64 125.17
  C 498.25 125.08 482.08 131.23 469.94 145.18
  C 462.24 154.03 456.34 164.91 455.03 176.54
  Q 452.07 202.77 466.81 223.10
  C 472.38 230.79 480.90 239.35 490.06 244.37
  C 496.36 247.82 503.03 250.56 510.09 251.31"
/>
<path stroke="#9dc1a8" vector-effect="non-scaling-stroke" d="
  M 507.81 188.48
  Q 505.06 186.49 502.65 183.91
  Q 495.81 176.59 489.17 170.46
  A 1.11 1.11 0.0 0 0 487.69 170.44
  Q 483.12 174.37 478.45 179.51
  Q 476.39 181.77 475.19 184.09
  Q 474.50 185.40 475.57 186.44
  Q 488.14 198.58 499.45 210.11
  C 502.92 213.65 507.48 216.74 512.03 212.51
  Q 515.06 209.69 519.11 204.86
  Q 524.06 198.96 558.67 163.18
  C 560.33 161.46 561.91 159.59 559.98 157.23
  C 556.91 153.46 548.65 148.36 544.20 152.70
  Q 533.01 163.64 521.80 175.50
  Q 515.70 181.95 509.00 188.39
  A 0.94 0.93 -49.2 0 1 507.81 188.48"
/>
<path stroke="#9dc1a8" vector-effect="non-scaling-stroke" d="
  M 142.12 254.99
  A 0.69 0.68 -43.0 0 1 143.10 255.02
  Q 149.23 261.73 154.94 267.55
  C 157.68 270.35 162.15 271.30 165.32 268.27
  Q 167.99 265.70 170.43 263.08
  Q 183.76 248.70 198.38 233.71
  Q 199.15 232.91 199.71 231.95
  Q 199.99 231.47 199.77 230.95
  C 197.95 226.78 193.47 223.23 189.68 221.04
  Q 185.90 218.86 183.04 221.34
  Q 180.04 223.93 177.22 226.95
  Q 169.58 235.11 161.40 243.77
  Q 160.93 244.26 160.27 244.40
  A 1.66 1.64 61.7 0 1 158.74 243.93
  Q 150.42 235.33 140.45 226.85
  A 1.40 1.40 0.0 0 0 138.72 226.79
  Q 137.31 227.84 136.03 229.12
  Q 124.98 240.15 114.29 251.88
  Q 113.18 253.10 112.64 254.58
  Q 112.49 254.98 112.76 255.32
  C 116.39 259.97 121.41 266.33 126.21 268.32
  Q 126.72 268.53 127.21 268.28
  Q 129.20 267.26 130.82 265.72
  Q 136.38 260.46 142.12 254.99"
/>
</g>
<path fill="#fcfdf8" d="
  M 0.00 0.00
  L 684.00 0.00
  L 684.00 413.00
  L 0.00 413.00
  L 0.00 0.00
  Z
  M 534.97 99.58
  Q 535.16 84.23 535.19 70.19
  C 535.22 57.42 530.40 46.83 517.93 42.17
  Q 514.00 40.70 508.19 40.68
  Q 424.38 40.32 354.93 40.61
  A 1.55 1.54 -9.1 0 1 353.46 39.55
  C 352.42 36.42 348.51 35.64 345.50 35.57
  Q 334.09 35.31 322.31 35.45
  C 317.92 35.50 315.15 36.62 312.49 39.99
  A 1.93 1.91 -70.7 0 1 310.98 40.73
  Q 241.64 40.78 171.67 40.41
  Q 160.84 40.35 155.87 42.01
  C 145.81 45.37 138.93 54.63 138.51 65.36
  Q 138.46 66.53 137.29 66.53
  Q 117.44 66.50 96.72 66.59
  Q 78.66 66.66 64.27 77.73
  C 53.72 85.85 46.58 100.49 45.34 113.88
  C 44.30 125.12 45.79 136.79 50.10 147.24
  Q 51.86 151.52 51.86 155.04
  Q 51.81 227.91 51.69 302.12
  Q 51.68 313.85 53.15 319.76
  C 56.81 334.43 67.75 346.58 82.24 351.38
  Q 88.56 353.47 96.75 353.47
  Q 115.98 353.47 136.39 353.56
  A 1.94 1.94 0.0 0 1 138.28 355.06
  C 139.73 361.29 142.88 365.54 147.86 370.61
  C 151.65 374.46 155.44 378.33 159.12 382.35
  C 165.83 389.67 174.93 394.06 184.85 393.04
  C 193.98 392.11 198.94 383.43 201.72 375.55
  A 1.95 1.94 -80.2 0 1 203.55 374.25
  Q 251.67 374.15 304.22 374.02
  C 306.82 374.01 308.13 372.92 309.94 371.39
  C 312.96 368.85 316.55 368.12 320.37 368.18
  Q 331.90 368.37 342.74 367.97
  C 347.76 367.79 351.81 369.15 355.11 372.96
  A 3.04 3.03 69.8 0 0 357.35 374.00
  Q 362.49 374.08 367.75 374.10
  Q 431.89 374.35 496.45 374.28
  C 502.03 374.27 507.57 374.37 512.54 373.39
  Q 529.54 370.04 534.65 354.71
  C 535.84 351.14 535.62 347.30 535.60 343.50
  Q 535.42 312.53 535.60 272.19
  A 0.49 0.48 -89.4 0 1 536.08 271.71
  Q 559.56 271.76 583.82 271.75
  Q 592.24 271.75 596.37 264.86
  C 598.13 261.91 598.42 258.60 598.42 255.16
  Q 598.54 188.31 598.48 116.69
  C 598.47 112.17 597.03 108.33 593.50 105.25
  C 589.15 101.45 583.61 100.69 577.96 100.66
  Q 557.58 100.56 535.92 100.55
  A 0.96 0.95 -89.7 0 1 534.97 99.58
  Z
  M 628.71 193.83
  C 630.41 190.19 632.87 187.74 637.02 187.65
  A 0.98 0.95 -69.2 0 0 637.71 187.33
  Q 638.34 186.63 637.83 186.03
  Q 637.48 185.61 636.96 185.41
  Q 630.76 183.00 628.82 176.71
  A 0.80 0.80 0.0 0 0 627.39 176.51
  Q 626.25 178.27 625.45 180.12
  C 624.28 182.88 621.34 184.17 618.65 184.87
  Q 616.45 185.44 618.52 186.37
  C 622.27 188.04 626.12 189.82 627.75 193.81
  A 0.53 0.52 -43.6 0 0 628.71 193.83
  Z
  M 595.89 330.43
  C 597.61 331.61 597.80 333.87 598.92 335.56
  A 0.97 0.96 -48.9 0 0 600.59 335.44
  C 602.57 331.38 602.95 327.89 608.71 328.20
  Q 609.35 328.24 609.51 327.62
  Q 609.63 327.15 609.25 326.85
  Q 602.87 321.93 599.93 316.38
  Q 599.53 315.63 599.26 316.44
  C 597.88 320.56 592.95 324.47 589.65 326.71
  Q 588.73 327.32 589.79 327.62
  Q 593.14 328.54 595.89 330.43
  Z"
/>
<path fill="#313b43" d="
  M 534.97 99.58
  A 0.96 0.95 -89.7 0 0 535.92 100.55
  Q 557.58 100.56 577.96 100.66
  C 583.61 100.69 589.15 101.45 593.50 105.25
  C 597.03 108.33 598.47 112.17 598.48 116.69
  Q 598.54 188.31 598.42 255.16
  C 598.42 258.60 598.13 261.91 596.37 264.86
  Q 592.24 271.75 583.82 271.75
  Q 559.56 271.76 536.08 271.71
  A 0.49 0.48 -89.4 0 0 535.60 272.19
  Q 535.42 312.53 535.60 343.50
  C 535.62 347.30 535.84 351.14 534.65 354.71
  Q 529.54 370.04 512.54 373.39
  C 507.57 374.37 502.03 374.27 496.45 374.28
  Q 431.89 374.35 367.75 374.10
  Q 362.49 374.08 357.35 374.00
  A 3.04 3.03 69.8 0 1 355.11 372.96
  C 351.81 369.15 347.76 367.79 342.74 367.97
  Q 331.90 368.37 320.37 368.18
  C 316.55 368.12 312.96 368.85 309.94 371.39
  C 308.13 372.92 306.82 374.01 304.22 374.02
  Q 251.67 374.15 203.55 374.25
  A 1.95 1.94 -80.2 0 0 201.72 375.55
  C 198.94 383.43 193.98 392.11 184.85 393.04
  C 174.93 394.06 165.83 389.67 159.12 382.35
  C 155.44 378.33 151.65 374.46 147.86 370.61
  C 142.88 365.54 139.73 361.29 138.28 355.06
  A 1.94 1.94 0.0 0 0 136.39 353.56
  Q 115.98 353.47 96.75 353.47
  Q 88.56 353.47 82.24 351.38
  C 67.75 346.58 56.81 334.43 53.15 319.76
  Q 51.68 313.85 51.69 302.12
  Q 51.81 227.91 51.86 155.04
  Q 51.86 151.52 50.10 147.24
  C 45.79 136.79 44.30 125.12 45.34 113.88
  C 46.58 100.49 53.72 85.85 64.27 77.73
  Q 78.66 66.66 96.72 66.59
  Q 117.44 66.50 137.29 66.53
  Q 138.46 66.53 138.51 65.36
  C 138.93 54.63 145.81 45.37 155.87 42.01
  Q 160.84 40.35 171.67 40.41
  Q 241.64 40.78 310.98 40.73
  A 1.93 1.91 -70.7 0 0 312.49 39.99
  C 315.15 36.62 317.92 35.50 322.31 35.45
  Q 334.09 35.31 345.50 35.57
  C 348.51 35.64 352.42 36.42 353.46 39.55
  A 1.55 1.54 -9.1 0 0 354.93 40.61
  Q 424.38 40.32 508.19 40.68
  Q 514.00 40.70 517.93 42.17
  C 530.40 46.83 535.22 57.42 535.19 70.19
  Q 535.16 84.23 534.97 99.58
  Z
  M 344.7814 54.4406
  A 8.36 8.36 0.0 0 0 337.0561 45.4908
  L 332.2690 45.1393
  A 8.36 8.36 0.0 0 0 323.3192 52.8645
  L 323.1786 54.7794
  A 8.36 8.36 0.0 0 0 330.9039 63.7292
  L 335.6910 64.0807
  A 8.36 8.36 0.0 0 0 344.6408 56.3555
  L 344.7814 54.4406
  Z
  M 65.78 161.97
  A 0.54 0.54 0.0 0 1 65.27 162.77
  L 60.51 162.41
  Q 59.76 162.35 59.76 163.10
  Q 59.93 237.02 59.65 303.80
  Q 59.61 312.28 60.66 316.68
  C 63.76 329.72 74.12 340.43 86.82 343.91
  Q 91.98 345.33 106.03 345.20
  Q 135.77 344.93 165.20 346.27
  Q 171.15 346.54 178.01 345.37
  C 199.42 341.72 220.83 330.60 237.09 316.49
  C 251.66 303.85 261.79 288.56 264.72 270.06
  Q 266.90 256.26 265.37 242.83
  C 263.42 225.61 255.48 209.86 244.48 196.18
  C 231.10 179.54 215.04 164.74 197.48 152.11
  Q 171.69 133.57 141.19 124.15
  Q 132.18 121.37 124.96 120.39
  C 111.45 118.56 95.29 121.98 86.81 133.45
  Q 81.41 140.76 81.85 148.59
  Q 81.89 149.26 81.22 149.23
  L 76.74 149.02
  A 0.76 0.76 0.0 0 1 76.01 148.26
  C 76.09 134.89 85.43 122.99 97.49 117.77
  C 110.23 112.25 124.70 112.77 137.80 117.23
  A 0.54 0.54 0.0 0 0 138.51 116.72
  L 138.52 75.30
  A 0.53 0.53 0.0 0 0 137.99 74.77
  Q 119.98 74.55 101.05 74.52
  C 84.73 74.50 71.02 79.01 61.50 92.73
  C 50.05 109.22 52.41 132.13 59.81 149.72
  Q 62.57 156.25 65.78 161.97
  Z
  M 273.82 262.27
  C 272.37 281.34 265.35 298.57 252.76 312.33
  Q 241.24 324.92 226.46 334.78
  C 222.91 337.16 219.40 339.24 215.61 341.09
  A 0.44 0.44 0.0 0 0 215.80 341.92
  L 500.48 341.50
  A 1.24 1.23 -0.0 0 0 501.72 340.27
  L 501.75 279.46
  A 0.85 0.85 0.0 0 0 500.33 278.83
  Q 490.83 287.31 481.39 295.78
  Q 479.20 297.75 476.53 298.39
  C 472.67 299.32 469.75 294.79 469.51 291.46
  Q 468.85 282.21 469.10 272.02
  A 0.91 0.91 0.0 0 0 468.21 271.09
  Q 460.23 270.94 453.97 270.93
  C 446.61 270.92 441.05 268.69 438.12 261.96
  C 436.64 258.59 436.90 253.57 436.89 249.74
  Q 436.69 187.86 436.63 122.55
  C 436.63 113.02 437.43 105.80 446.46 101.57
  Q 449.63 100.09 458.68 100.16
  Q 479.28 100.31 500.61 100.22
  A 0.89 0.89 0.0 0 0 501.50 99.39
  C 502.02 91.79 501.82 83.64 501.89 75.10
  A 0.41 0.40 90.0 0 0 501.49 74.69
  L 174.44 74.80
  A 1.01 1.01 0.0 0 0 173.43 75.81
  L 173.51 126.47
  A 2.24 2.22 14.0 0 0 174.70 128.44
  Q 211.92 148.03 241.15 179.92
  Q 252.74 192.56 260.49 205.40
  Q 276.17 231.41 273.82 262.27
  Z
  M 477.85 262.73
  A 0.79 0.79 0.0 0 1 478.52 263.51
  L 478.45 283.81
  Q 478.44 286.15 480.07 284.48
  Q 490.40 273.92 501.36 264.25
  Q 502.53 263.22 504.22 263.22
  Q 543.65 263.18 583.20 262.62
  Q 585.52 262.59 587.54 261.94
  Q 588.02 261.78 588.23 261.32
  Q 589.27 259.00 589.27 256.45
  Q 589.23 180.69 589.44 118.14
  C 589.46 111.04 584.44 109.56 578.50 109.49
  Q 560.67 109.28 544.46 109.41
  Q 505.36 109.71 456.50 109.44
  C 444.87 109.37 445.06 116.79 445.09 126.21
  Q 445.31 192.35 445.69 254.09
  C 445.71 258.41 448.47 262.18 452.97 262.29
  Q 462.64 262.55 472.64 262.37
  Q 475.24 262.33 477.85 262.73
  Z"
/>
<rect fill="#437ec0" x="-10.76" y="-9.32" transform="translate(333.98,54.61) rotate(4.2)" width="21.52" height="18.64" rx="8.36"/>
<path fill="#fefefe" d="
  M 65.78 161.97
  Q 62.57 156.25 59.81 149.72
  C 52.41 132.13 50.05 109.22 61.50 92.73
  C 71.02 79.01 84.73 74.50 101.05 74.52
  Q 119.98 74.55 137.99 74.77
  A 0.53 0.53 0.0 0 1 138.52 75.30
  L 138.51 116.72
  A 0.54 0.54 0.0 0 1 137.80 117.23
  C 124.70 112.77 110.23 112.25 97.49 117.77
  C 85.43 122.99 76.09 134.89 76.01 148.26
  A 0.76 0.76 0.0 0 0 76.74 149.02
  L 81.22 149.23
  Q 81.89 149.26 81.85 148.59
  Q 81.41 140.76 86.81 133.45
  C 95.29 121.98 111.45 118.56 124.96 120.39
  Q 132.18 121.37 141.19 124.15
  Q 171.69 133.57 197.48 152.11
  C 215.04 164.74 231.10 179.54 244.48 196.18
  C 255.48 209.86 263.42 225.61 265.37 242.83
  Q 266.90 256.26 264.72 270.06
  C 261.79 288.56 251.66 303.85 237.09 316.49
  C 220.83 330.60 199.42 341.72 178.01 345.37
  Q 171.15 346.54 165.20 346.27
  Q 135.77 344.93 106.03 345.20
  Q 91.98 345.33 86.82 343.91
  C 74.12 340.43 63.76 329.72 60.66 316.68
  Q 59.61 312.28 59.65 303.80
  Q 59.93 237.02 59.76 163.10
  Q 59.76 162.35 60.51 162.41
  L 65.27 162.77
  A 0.54 0.54 0.0 0 0 65.78 161.97
  Z
  M 158.8738 320.5799
  A 70.92 67.29 89.9 0 0 226.0399 249.5426
  A 70.92 67.29 89.9 0 0 158.6262 178.7401
  A 70.92 67.29 89.9 0 0 91.4601 249.7774
  A 70.92 67.29 89.9 0 0 158.8738 320.5799
  Z"
/>
<path fill="#fefefe" d="
  M 252.76 312.33
  C 265.35 298.57 272.37 281.34 273.82 262.27
  Q 276.17 231.41 260.49 205.40
  Q 252.74 192.56 241.15 179.92
  Q 211.92 148.03 174.70 128.44
  A 2.24 2.22 14.0 0 1 173.51 126.47
  L 173.43 75.81
  A 1.01 1.01 0.0 0 1 174.44 74.80
  L 501.49 74.69
  A 0.41 0.40 90.0 0 1 501.89 75.10
  C 501.82 83.64 502.02 91.79 501.50 99.39
  A 0.89 0.89 0.0 0 1 500.61 100.22
  Q 479.28 100.31 458.68 100.16
  Q 449.63 100.09 446.46 101.57
  C 437.43 105.80 436.63 113.02 436.63 122.55
  Q 436.69 187.86 436.89 249.74
  C 436.90 253.57 436.64 258.59 438.12 261.96
  C 441.05 268.69 446.61 270.92 453.97 270.93
  Q 460.23 270.94 468.21 271.09
  A 0.91 0.91 0.0 0 1 469.10 272.02
  Q 468.85 282.21 469.51 291.46
  C 469.75 294.79 472.67 299.32 476.53 298.39
  Q 479.20 297.75 481.39 295.78
  Q 490.83 287.31 500.33 278.83
  A 0.85 0.85 0.0 0 1 501.75 279.46
  L 501.72 340.27
  A 1.24 1.23 -0.0 0 1 500.48 341.50
  L 215.80 341.92
  A 0.44 0.44 0.0 0 1 215.61 341.09
  C 219.40 339.24 222.91 337.16 226.46 334.78
  Q 241.24 324.92 252.76 312.33
  Z
  M 374.44 83.08
  C 370.20 80.79 367.28 82.01 364.09 85.13
  Q 351.64 97.30 338.85 108.84
  C 337.39 110.16 335.20 112.67 333.04 110.73
  Q 328.26 106.45 322.91 101.50
  Q 317.08 96.12 310.47 100.23
  C 305.56 103.28 301.81 110.01 306.64 114.95
  Q 315.17 123.67 323.40 132.30
  C 326.70 135.75 331.04 139.16 335.92 138.41
  C 341.36 137.58 344.20 134.12 348.73 129.45
  Q 362.36 115.40 376.27 102.79
  Q 380.56 98.90 381.81 96.50
  C 384.60 91.15 379.07 85.57 374.44 83.08
  Z
  M 217.0311 95.2284
  A 0.81 0.81 0.0 0 0 216.2196 94.4198
  L 193.0997 94.4602
  A 0.81 0.81 0.0 0 0 192.2911 95.2716
  L 192.3289 116.9516
  A 0.81 0.81 0.0 0 0 193.1404 117.7602
  L 216.2603 117.7198
  A 0.81 0.81 0.0 0 0 217.0689 116.9084
  L 217.0311 95.2284
  Z
  M 260.0907 94.9181
  A 0.68 0.68 0.0 0 0 259.4095 94.2393
  L 235.6695 94.2807
  A 0.68 0.68 0.0 0 0 234.9907 94.9619
  L 235.0293 117.0619
  A 0.68 0.68 0.0 0 0 235.7105 117.7407
  L 259.4505 117.6993
  A 0.68 0.68 0.0 0 0 260.1293 117.0181
  L 260.0907 94.9181
  Z
  M 422.16 165.02
  A 12.35 12.35 0.0 0 0 409.81 152.67
  L 289.41 152.67
  A 12.35 12.35 0.0 0 0 277.06 165.02
  L 277.06 166.44
  A 12.35 12.35 0.0 0 0 289.41 178.79
  L 409.81 178.79
  A 12.35 12.35 0.0 0 0 422.16 166.44
  L 422.16 165.02
  Z
  M 381.0493 206.8791
  A 13.08 13.08 0.0 0 0 367.9465 193.8220
  L 289.9866 193.9581
  A 13.08 13.08 0.0 0 0 276.9295 207.0609
  L 276.9307 207.7809
  A 13.08 13.08 0.0 0 0 290.0335 220.8380
  L 367.9934 220.7019
  A 13.08 13.08 0.0 0 0 381.0505 207.5991
  L 381.0493 206.8791
  Z
  M 350.7166 245.5939
  A 15.57 13.24 -1.2 0 0 334.8727 232.6829
  A 15.57 13.24 -1.2 0 0 319.5834 246.2461
  A 15.57 13.24 -1.2 0 0 335.4273 259.1571
  A 15.57 13.24 -1.2 0 0 350.7166 245.5939
  Z
  M 451.1296 304.3353
  A 11.21 11.21 0.0 0 0 439.9000 293.1449
  L 285.0402 293.4152
  A 11.21 11.21 0.0 0 0 273.8498 304.6447
  L 273.8504 305.0047
  A 11.21 11.21 0.0 0 0 285.0800 316.1951
  L 439.9398 315.9248
  A 11.21 11.21 0.0 0 0 451.1302 304.6953
  L 451.1296 304.3353
  Z"
/>
<path fill="#3c8452" d="
  M 374.44 83.08
  C 379.07 85.57 384.60 91.15 381.81 96.50
  Q 380.56 98.90 376.27 102.79
  Q 362.36 115.40 348.73 129.45
  C 344.20 134.12 341.36 137.58 335.92 138.41
  C 331.04 139.16 326.70 135.75 323.40 132.30
  Q 315.17 123.67 306.64 114.95
  C 301.81 110.01 305.56 103.28 310.47 100.23
  Q 317.08 96.12 322.91 101.50
  Q 328.26 106.45 333.04 110.73
  C 335.20 112.67 337.39 110.16 338.85 108.84
  Q 351.64 97.30 364.09 85.13
  C 367.28 82.01 370.20 80.79 374.44 83.08
  Z"
/>
<rect fill="#f4aa42" x="-12.37" y="-11.65" transform="translate(204.68,106.09) rotate(-0.1)" width="24.74" height="23.30" rx="0.81"/>
<rect fill="#437ec0" x="-12.55" y="-11.73" transform="translate(247.56,105.99) rotate(-0.1)" width="25.10" height="23.46" rx="0.68"/>
<path fill="#437ec0" d="
  M 477.85 262.73
  Q 475.24 262.33 472.64 262.37
  Q 462.64 262.55 452.97 262.29
  C 448.47 262.18 445.71 258.41 445.69 254.09
  Q 445.31 192.35 445.09 126.21
  C 445.06 116.79 444.87 109.37 456.50 109.44
  Q 505.36 109.71 544.46 109.41
  Q 560.67 109.28 578.50 109.49
  C 584.44 109.56 589.46 111.04 589.44 118.14
  Q 589.23 180.69 589.27 256.45
  Q 589.27 259.00 588.23 261.32
  Q 588.02 261.78 587.54 261.94
  Q 585.52 262.59 583.20 262.62
  Q 543.65 263.18 504.22 263.22
  Q 502.53 263.22 501.36 264.25
  Q 490.40 273.92 480.07 284.48
  Q 478.44 286.15 478.45 283.81
  L 478.52 263.51
  A 0.79 0.79 0.0 0 0 477.85 262.73
  Z
  M 510.09 251.31
  Q 523.00 252.68 532.93 250.46
  C 553.51 245.84 571.91 227.04 577.58 206.89
  C 581.02 194.64 580.95 179.31 575.95 167.41
  C 568.25 149.10 554.81 136.68 536.76 129.09
  Q 527.54 125.21 516.64 125.17
  C 498.25 125.08 482.08 131.23 469.94 145.18
  C 462.24 154.03 456.34 164.91 455.03 176.54
  Q 452.07 202.77 466.81 223.10
  C 472.38 230.79 480.90 239.35 490.06 244.37
  C 496.36 247.82 503.03 250.56 510.09 251.31
  Z"
/>
<path fill="#3c8452" d="
  M 510.09 251.31
  C 503.03 250.56 496.36 247.82 490.06 244.37
  C 480.90 239.35 472.38 230.79 466.81 223.10
  Q 452.07 202.77 455.03 176.54
  C 456.34 164.91 462.24 154.03 469.94 145.18
  C 482.08 131.23 498.25 125.08 516.64 125.17
  Q 527.54 125.21 536.76 129.09
  C 554.81 136.68 568.25 149.10 575.95 167.41
  C 580.95 179.31 581.02 194.64 577.58 206.89
  C 571.91 227.04 553.51 245.84 532.93 250.46
  Q 523.00 252.68 510.09 251.31
  Z
  M 507.81 188.48
  Q 505.06 186.49 502.65 183.91
  Q 495.81 176.59 489.17 170.46
  A 1.11 1.11 0.0 0 0 487.69 170.44
  Q 483.12 174.37 478.45 179.51
  Q 476.39 181.77 475.19 184.09
  Q 474.50 185.40 475.57 186.44
  Q 488.14 198.58 499.45 210.11
  C 502.92 213.65 507.48 216.74 512.03 212.51
  Q 515.06 209.69 519.11 204.86
  Q 524.06 198.96 558.67 163.18
  C 560.33 161.46 561.91 159.59 559.98 157.23
  C 556.91 153.46 548.65 148.36 544.20 152.70
  Q 533.01 163.64 521.80 175.50
  Q 515.70 181.95 509.00 188.39
  A 0.94 0.93 -49.2 0 1 507.81 188.48
  Z"
/>
<path fill="#fefefe" d="
  M 507.81 188.48
  A 0.94 0.93 -49.2 0 0 509.00 188.39
  Q 515.70 181.95 521.80 175.50
  Q 533.01 163.64 544.20 152.70
  C 548.65 148.36 556.91 153.46 559.98 157.23
  C 561.91 159.59 560.33 161.46 558.67 163.18
  Q 524.06 198.96 519.11 204.86
  Q 515.06 209.69 512.03 212.51
  C 507.48 216.74 502.92 213.65 499.45 210.11
  Q 488.14 198.58 475.57 186.44
  Q 474.50 185.40 475.19 184.09
  Q 476.39 181.77 478.45 179.51
  Q 483.12 174.37 487.69 170.44
  A 1.11 1.11 0.0 0 1 489.17 170.46
  Q 495.81 176.59 502.65 183.91
  Q 505.06 186.49 507.81 188.48
  Z"
/>
<rect fill="#313b43" x="277.06" y="152.67" width="145.10" height="26.12" rx="12.35"/>
<path fill="#313b43" d="
  M 637.02 187.65
  C 632.87 187.74 630.41 190.19 628.71 193.83
  A 0.53 0.52 -43.6 0 1 627.75 193.81
  C 626.12 189.82 622.27 188.04 618.52 186.37
  Q 616.45 185.44 618.65 184.87
  C 621.34 184.17 624.28 182.88 625.45 180.12
  Q 626.25 178.27 627.39 176.51
  A 0.80 0.80 0.0 0 1 628.82 176.71
  Q 630.76 183.00 636.96 185.41
  Q 637.48 185.61 637.83 186.03
  Q 638.34 186.63 637.71 187.33
  A 0.98 0.95 -69.2 0 1 637.02 187.65
  Z"
/>
<path fill="#3c8452" d="
  M 158.8738 320.5799
  A 70.92 67.29 89.9 0 1 91.4601 249.7774
  A 70.92 67.29 89.9 0 1 158.6262 178.7401
  A 70.92 67.29 89.9 0 1 226.0399 249.5426
  A 70.92 67.29 89.9 0 1 158.8738 320.5799
  Z
  M 142.12 254.99
  A 0.69 0.68 -43.0 0 1 143.10 255.02
  Q 149.23 261.73 154.94 267.55
  C 157.68 270.35 162.15 271.30 165.32 268.27
  Q 167.99 265.70 170.43 263.08
  Q 183.76 248.70 198.38 233.71
  Q 199.15 232.91 199.71 231.95
  Q 199.99 231.47 199.77 230.95
  C 197.95 226.78 193.47 223.23 189.68 221.04
  Q 185.90 218.86 183.04 221.34
  Q 180.04 223.93 177.22 226.95
  Q 169.58 235.11 161.40 243.77
  Q 160.93 244.26 160.27 244.40
  A 1.66 1.64 61.7 0 1 158.74 243.93
  Q 150.42 235.33 140.45 226.85
  A 1.40 1.40 0.0 0 0 138.72 226.79
  Q 137.31 227.84 136.03 229.12
  Q 124.98 240.15 114.29 251.88
  Q 113.18 253.10 112.64 254.58
  Q 112.49 254.98 112.76 255.32
  C 116.39 259.97 121.41 266.33 126.21 268.32
  Q 126.72 268.53 127.21 268.28
  Q 129.20 267.26 130.82 265.72
  Q 136.38 260.46 142.12 254.99
  Z"
/>
<rect fill="#313b43" x="-52.06" y="-13.44" transform="translate(328.99,207.33) rotate(-0.1)" width="104.12" height="26.88" rx="13.08"/>
<path fill="#fefefe" d="
  M 142.12 254.99
  Q 136.38 260.46 130.82 265.72
  Q 129.20 267.26 127.21 268.28
  Q 126.72 268.53 126.21 268.32
  C 121.41 266.33 116.39 259.97 112.76 255.32
  Q 112.49 254.98 112.64 254.58
  Q 113.18 253.10 114.29 251.88
  Q 124.98 240.15 136.03 229.12
  Q 137.31 227.84 138.72 226.79
  A 1.40 1.40 0.0 0 1 140.45 226.85
  Q 150.42 235.33 158.74 243.93
  A 1.66 1.64 61.7 0 0 160.27 244.40
  Q 160.93 244.26 161.40 243.77
  Q 169.58 235.11 177.22 226.95
  Q 180.04 223.93 183.04 221.34
  Q 185.90 218.86 189.68 221.04
  C 193.47 223.23 197.95 226.78 199.77 230.95
  Q 199.99 231.47 199.71 231.95
  Q 199.15 232.91 198.38 233.71
  Q 183.76 248.70 170.43 263.08
  Q 167.99 265.70 165.32 268.27
  C 162.15 271.30 157.68 270.35 154.94 267.55
  Q 149.23 261.73 143.10 255.02
  A 0.69 0.68 -43.0 0 0 142.12 254.99
  Z"
/>
<ellipse fill="#f4aa42" cx="0.00" cy="0.00" transform="translate(335.15,245.92) rotate(-1.2)" rx="15.57" ry="13.24"/>
<rect fill="#f4aa42" x="-88.64" y="-11.39" transform="translate(362.49,304.67) rotate(-0.1)" width="177.28" height="22.78" rx="11.21"/>
<path fill="#313b43" d="
  M 595.89 330.43
  Q 593.14 328.54 589.79 327.62
  Q 588.73 327.32 589.65 326.71
  C 592.95 324.47 597.88 320.56 599.26 316.44
  Q 599.53 315.63 599.93 316.38
  Q 602.87 321.93 609.25 326.85
  Q 609.63 327.15 609.51 327.62
  Q 609.35 328.24 608.71 328.20
  C 602.95 327.89 602.57 331.38 600.59 335.44
  A 0.97 0.96 -48.9 0 1 598.92 335.56
  C 597.80 333.87 597.61 331.61 595.89 330.43
  Z"
/>
</svg>
